<svg width="191" height="72" viewBox="0 0 191 72" fill="none" xmlns="http://www.w3.org/2000/svg">
<path d="M52.8011 27.745C52.5628 27.2207 52.5866 26.6725 52.5866 26.1244C52.5866 25.7192 52.7534 25.6477 53.1109 25.7192C54.3741 25.9575 55.6611 26.029 56.9481 25.9337C60.5708 25.6477 63.6453 24.1939 66.1716 21.5722C66.4814 21.2385 66.6483 21.1432 66.9343 21.596C67.5539 22.5494 68.2213 23.4789 68.6979 24.5275C68.5311 24.7897 68.2689 24.8135 68.0068 24.8612C63.2163 25.8145 58.4019 26.744 53.6114 27.6974C53.3254 27.745 53.0633 27.8404 52.8011 27.745Z" fill="#E74214"/>
<path d="M38.2372 33.1789C37.7128 34.1799 36.974 35.0379 36.116 35.7767C35.83 36.0389 35.7108 35.9674 35.5917 35.6099C33.7565 30.8194 30.3722 27.7687 25.4148 26.4579C25.0812 26.3625 24.9858 26.2672 25.1527 25.9574C25.3433 25.6237 25.5102 25.2662 25.677 24.9087C26.5112 25.3615 27.2738 25.9335 28.0603 26.434C31.254 28.5314 34.4715 30.6049 37.6652 32.6784C37.8797 32.8214 38.1418 32.9167 38.2372 33.1789Z" fill="#E74214"/>
<path d="M52.3703 34.8945C52.7755 37.111 51.6791 39.3275 49.6533 40.3047C47.6275 41.3057 45.1488 40.829 43.6473 39.1368C43.5758 39.0653 43.5281 38.97 43.4805 38.8747C43.5281 38.5648 43.7665 38.7078 43.9095 38.7317C44.3385 38.8032 44.7675 38.8985 45.2203 38.9462C46.0545 39.0653 46.841 38.9462 47.6275 38.7078C47.6751 38.684 47.7228 38.6602 47.7705 38.6602C48.3425 38.6125 48.7953 38.3027 49.2481 38.0405C50.3683 37.4447 51.2263 36.5867 51.7745 35.4188C51.9175 35.1805 51.9175 34.7753 52.3703 34.8945Z" fill="#E74214"/>
<path d="M63.2157 17.5678C64.1929 18.3066 64.9794 19.2123 65.7897 20.118C66.0042 20.3563 65.8612 20.4755 65.6944 20.6423C64.2167 22.1438 62.5484 23.3355 60.5464 24.0028C60.1889 23.9075 60.4034 23.6691 60.4511 23.5023C60.6656 22.9065 60.9277 22.3106 61.1661 21.7386C61.6666 20.4993 62.1432 19.26 62.6676 18.0445C62.7629 17.7823 62.8106 17.4248 63.2157 17.5678Z" fill="#E74214"/>
<path d="M23.5566 31.1531C23.7235 29.8899 24.1048 28.6982 24.51 27.5066C24.5576 27.3397 24.6291 27.2444 24.8436 27.2921C26.8933 27.8164 28.8 28.6744 30.4206 30.0567C30.3491 30.5334 29.944 30.4857 29.658 30.5334C28.3471 30.7241 27.0125 30.9147 25.7016 31.0816C25.2726 31.1292 24.8198 31.2007 24.3908 31.2722C24.1048 31.3199 23.8188 31.3676 23.5566 31.1531Z" fill="#E74214"/>
<path d="M55.2787 58.4422C54.087 58.9189 52.8477 59.2287 51.6083 59.4432C51.3938 59.4909 51.2747 59.4671 51.227 59.2287C50.655 57.1552 50.4882 55.0817 50.8695 52.9606C51.1317 52.8652 51.2747 53.0559 51.3938 53.2227C52.657 54.7957 53.8963 56.3926 55.1357 57.9894C55.231 58.1324 55.3502 58.2516 55.2787 58.4422Z" fill="#E74214"/>
<path d="M48.6055 44.3091C50.1785 44.0946 51.68 44.2138 53.0623 45.0956C53.3483 45.2863 53.396 45.4293 53.1338 45.7153C51.5846 47.4551 50.536 49.481 49.9878 51.7451C49.9878 51.769 49.9401 51.7928 49.9401 51.8405C49.6541 51.626 49.6065 51.3161 49.5826 50.9825C49.392 49.0758 49.1775 47.1691 49.0106 45.2625C48.963 44.905 48.8915 44.5713 48.6055 44.3091Z" fill="#E74214"/>
<path d="M31.6117 42.998C31.8977 43.1887 32.1837 43.3794 32.4459 43.57C32.6842 43.9275 32.6604 44.3565 32.7081 44.7617C32.9702 47.4072 33.2562 50.0289 33.5184 52.6744C33.5422 52.9604 33.6376 53.2464 33.3516 53.4609C33.0656 53.5562 32.9464 53.3655 32.8034 53.1749C32.5651 52.8412 32.3506 52.4599 32.1361 52.1024C31.9931 51.7925 31.7786 51.5304 31.6832 51.1967C31.6117 50.8869 31.4687 50.6247 31.3734 50.3149C31.3019 50.0527 31.2066 49.8144 31.1351 49.5522C31.0636 49.2424 30.9921 48.9087 30.9444 48.5989C30.9206 48.4082 30.8729 48.2175 30.8491 48.003C30.8252 47.86 30.8252 47.6932 30.8252 47.5502C30.8491 46.9544 30.8014 46.3585 30.8252 45.7627C30.8491 45.429 30.9206 45.1192 30.9682 44.7855C31.1112 44.3804 31.1112 43.9514 31.2781 43.5462C31.3734 43.3794 31.3972 43.1172 31.6117 42.998Z" fill="#E74214"/>
<path d="M53.4666 29.2225C53.2998 29.0556 53.2044 28.8411 53.1568 28.6028C53.0376 28.2691 53.2998 28.2453 53.5143 28.1976C54.0386 28.0546 54.563 28.007 55.0873 27.8878C59.5441 26.9821 64.0248 26.1241 68.4816 25.2423C68.6723 25.1946 68.8629 25.1231 69.0536 25.2661C69.2204 25.5045 69.3873 25.719 69.3873 26.005C69.1966 26.3386 68.8391 26.3148 68.5531 26.3863C63.8341 27.292 59.139 28.2691 54.4438 29.151C54.0863 29.2225 53.7765 29.4131 53.4666 29.2225Z" fill="#E74214"/>
<path d="M69.0074 25.266C66.7433 25.8142 64.4314 26.1955 62.1196 26.6483C59.7124 27.1488 57.2814 27.6017 54.8743 28.0783C54.3976 28.1737 53.8971 28.269 53.4204 28.3405C53.2536 28.3643 53.1583 28.412 53.1345 28.5788C52.9438 28.3167 52.8484 28.0307 52.8008 27.697C54.0163 27.4348 55.2318 27.1727 56.4473 26.9343C60.1176 26.1955 63.8118 25.4805 67.5059 24.7417C67.9111 24.6702 68.2924 24.551 68.6976 24.4795C68.8168 24.7655 68.9836 24.98 69.0074 25.266Z" fill="#E74214"/>
<path d="M53.4668 29.2224C55.7786 28.7457 58.0905 28.2929 60.4023 27.8162C63.2861 27.2442 66.17 26.6722 69.0538 26.1002C69.1491 26.0764 69.2445 26.0287 69.3636 26.0049C69.5305 26.2432 69.6496 26.4816 69.6973 26.7437C69.5305 26.9582 69.2921 26.9582 69.0776 27.0059C64.1441 27.9592 59.2345 28.9602 54.301 29.9135C54.1818 29.9374 54.0626 29.9612 53.9196 29.9374C53.729 29.7467 53.5145 29.5322 53.4668 29.2224Z" fill="#E74214"/>
<path d="M70.1033 28.0546C70.2702 28.3167 70.3417 28.6027 70.3893 28.9126C69.6267 29.1986 68.7925 29.2939 67.9822 29.4369C64.0735 30.1996 60.1887 31.0099 56.28 31.7487C56.0178 31.7964 55.7795 31.9156 55.4935 31.9156C55.2313 31.7011 55.0168 31.4389 54.8262 31.1767C54.9692 30.8907 55.2313 30.8669 55.4935 30.8192C60.0933 29.9136 64.6932 29.0079 69.3168 28.1022C69.579 28.0307 69.8412 27.9354 70.1033 28.0546Z" fill="#E74214"/>
<path d="M55.4941 31.9157C55.6371 31.6059 55.947 31.6536 56.1853 31.6059C59.951 30.8432 63.7405 30.0806 67.5061 29.3656C68.4595 29.1987 69.389 28.8651 70.3661 28.8889C70.4376 29.1034 70.533 29.2941 70.5091 29.5324C70.39 29.7469 70.1755 29.7946 69.961 29.8184C65.4088 30.7002 60.8566 31.6297 56.2806 32.5116C56.1853 32.5354 56.1138 32.5354 56.0185 32.5116C55.8278 32.3686 55.661 32.1541 55.4941 31.9157Z" fill="#E74214"/>
<path d="M48.6537 18.5215C48.2009 18.7598 47.7242 18.9743 47.2714 19.2126C45.1741 17.8065 43.0529 16.448 40.9317 15.0657C40.7411 14.9465 40.5266 14.8273 40.5981 14.5413C40.6696 14.4936 40.7411 14.4937 40.8364 14.4937C41.0747 14.5413 41.3369 14.5413 41.5752 14.5175C41.8136 14.5175 42.0281 14.5175 42.2664 14.5651C42.5762 14.6605 42.9337 14.6843 43.2436 14.7796C43.5772 14.8988 43.9109 14.9942 44.2207 15.1133C44.4829 15.2325 44.7451 15.3278 45.0072 15.447C45.2932 15.6138 45.5792 15.733 45.8652 15.8998C46.1274 16.0905 46.4134 16.2097 46.6517 16.4242C46.9377 16.6387 47.2714 16.8055 47.5097 17.0915C47.7957 17.4013 48.0817 17.6873 48.3916 17.9733C48.5346 18.1163 48.7967 18.2355 48.6537 18.5215Z" fill="#E74214"/>
<path d="M57.5423 13.9215C57.8521 14.0168 58.162 14.136 58.4241 14.3505C57.0895 17.5203 55.874 20.714 54.5393 23.8838C54.4201 24.1698 54.3486 24.5035 54.1103 24.7418C53.7766 24.7895 53.4668 24.6942 53.1331 24.6227C52.8233 24.3605 53.0855 24.0983 53.1808 23.86C54.158 21.429 55.1351 18.998 56.1123 16.567C56.4221 15.8282 56.7081 15.0655 57.0418 14.3505C57.1371 14.136 57.161 13.8023 57.5423 13.9215Z" fill="#E74214"/>
<path d="M49.582 55.9876C49.6773 57.0839 49.8203 58.1803 50.154 59.2051C50.2731 59.5388 50.2016 59.6579 49.8441 59.6579C49.582 59.6579 49.3198 59.7056 49.0576 59.7294C48.8431 58.7046 48.7955 57.6559 48.6763 56.6073C48.438 54.3193 48.1996 52.0074 47.9613 49.7194C47.8183 48.2179 47.6515 46.7164 47.4846 45.2149C47.4608 44.9528 47.437 44.6668 47.6276 44.4523C47.8421 44.4284 48.0566 44.3808 48.2711 44.3569C48.6763 44.9528 48.5571 45.6678 48.6286 46.3113C48.867 48.6708 49.1291 51.0303 49.3675 53.4136C49.4866 54.2478 49.5581 55.1296 49.582 55.9876Z" fill="#E74214"/>
<path d="M70.1039 28.0547C68.7454 28.3407 67.3631 28.6267 66.0046 28.9127C62.6441 29.58 59.2836 30.2474 55.8992 30.9147C55.5417 30.9862 55.1604 31.01 54.8267 31.2007C54.6599 31.0577 54.5169 30.8909 54.4216 30.7002C54.3977 30.3665 54.6361 30.3427 54.8506 30.2712C55.2557 30.152 55.6847 30.0805 56.1137 30.009C60.4276 29.1272 64.7652 28.3169 69.0791 27.435C69.3412 27.3874 69.6272 27.2682 69.9132 27.435C70.0324 27.6019 70.1277 27.8164 70.1039 28.0547Z" fill="#E74214"/>
<path d="M47.6768 44.4282C47.7006 45.8582 47.9389 47.2882 48.0819 48.6944C48.1773 49.5286 48.2249 50.3389 48.3203 51.1731C48.4633 52.4601 48.6063 53.747 48.7254 55.0102C48.8446 56.2257 48.9638 57.4412 49.0591 58.6567C49.0829 58.9904 49.3213 59.3479 49.0829 59.6816C48.8684 59.6816 48.6539 59.7054 48.4394 59.7054C48.2011 59.3479 48.2249 58.9189 48.1773 58.5137C47.8674 55.4392 47.5576 52.3886 47.2239 49.3141C47.0571 47.7411 46.9856 46.1442 46.6758 44.5951C47.0094 44.4997 47.3431 44.4521 47.6768 44.4282Z" fill="#E74214"/>
<path d="M51.4415 50.7438C51.5606 50.291 51.7275 49.862 51.9658 49.4568C52.3471 49.3138 52.4663 49.6237 52.6331 49.8382C53.8486 51.3635 55.0641 52.9127 56.2558 54.4618C56.804 55.1768 57.3998 55.868 57.9241 56.6068C58.0433 56.7737 58.234 56.9167 58.1625 57.1788C57.805 57.3457 57.519 57.6555 57.09 57.7032C56.3273 56.9643 55.7315 56.0587 55.0641 55.2245C54.0155 53.8898 52.9668 52.579 51.9181 51.2443C51.799 51.0298 51.6321 50.8868 51.4415 50.7438Z" fill="#E74214"/>
<path d="M69.9124 27.3872C68.0058 27.7686 66.1229 28.1499 64.2163 28.5074C61.2133 29.1032 58.1864 29.6991 55.1834 30.2949C54.9213 30.3426 54.5638 30.2949 54.3969 30.6524C54.1824 30.4617 54.0156 30.2234 53.8964 29.9612C54.5638 29.5799 55.3264 29.6037 56.0414 29.4607C58.8299 28.8887 61.5946 28.3406 64.3831 27.7924C66.1468 27.4349 67.8866 27.1012 69.6503 26.7676C69.8171 26.9582 69.8648 27.1727 69.9124 27.3872Z" fill="#E74214"/>
<path d="M53.5625 46.8826C53.7293 46.6443 53.8485 46.406 54.0868 46.2391C54.3252 46.12 54.492 46.2391 54.635 46.4298C56.78 49.1706 58.9488 51.9114 61.07 54.6523C61.213 54.8191 61.4037 54.986 61.3083 55.272C61.07 55.4865 60.8555 55.701 60.5457 55.7725C59.8307 55.1766 59.3302 54.3663 58.7582 53.6513C57.1137 51.5778 55.493 49.4805 53.8485 47.407C53.7293 47.2401 53.5863 47.0971 53.5625 46.8826Z" fill="#E74214"/>
<path d="M63.5485 53.4132C63.3102 53.6992 63.0242 53.9614 62.6905 54.1759C61.9755 53.3894 61.3558 52.5076 60.6885 51.6972C59.4253 50.1004 58.1622 48.4797 56.899 46.8829C56.7322 46.6684 56.5653 46.5254 56.3032 46.4777C56.184 46.4539 56.041 46.4539 56.041 46.2632C56.6607 46.2632 57.3042 46.2394 57.9238 46.2394C58.186 46.1917 58.2575 46.3824 58.3767 46.5254C60.0212 48.6704 61.7372 50.7677 63.3817 52.9127C63.5009 53.0557 63.6915 53.1987 63.5485 53.4132Z" fill="#E74214"/>
<path d="M56.041 32.5352C56.6845 32.1539 57.4233 32.1539 58.1383 32.0109C61.6657 31.2959 65.193 30.6047 68.7203 29.9136C69.3162 29.7944 69.9358 29.7229 70.5317 29.5322C70.5555 29.7944 70.77 30.0089 70.7223 30.2949C70.5555 30.4617 70.3172 30.5094 70.0788 30.5571C66.0033 31.3197 61.9278 32.2016 57.8285 32.9642C57.3995 33.0357 56.9943 33.2026 56.5653 33.1787C56.3985 32.9642 56.2317 32.7497 56.041 32.5352Z" fill="#E74214"/>
<path d="M38.7857 45.3101C39.3577 45.3339 39.9297 45.3577 40.4779 45.3816C40.7401 45.4769 40.7401 45.6914 40.7639 45.9059C41.0499 48.7659 41.3597 51.6021 41.6457 54.4621C41.7649 55.6537 41.8841 56.8454 42.0271 58.0132C42.0509 58.2516 42.0986 58.4661 42.0509 58.7044C42.0032 58.9189 41.9317 59.0857 41.6457 58.9904C41.3597 58.9666 41.0737 58.8951 40.8354 58.7521C40.9069 58.5376 40.9784 58.3231 40.9546 58.0847C40.5256 54.0807 40.1442 50.0767 39.7152 46.0966C39.6914 45.8106 39.6676 45.5484 39.2862 45.5484C39.1194 45.5484 38.9764 45.5246 38.8334 45.4531C38.7619 45.4292 38.7619 45.3816 38.7857 45.3101Z" fill="#E74214"/>
<path d="M70.8432 30.9386C70.9624 31.1769 70.9624 31.4391 70.9624 31.6774C70.7479 31.9396 70.4381 31.9396 70.1282 32.0111C66.4817 32.7499 62.8352 33.4411 59.2126 34.1561C58.6882 34.2514 58.1639 34.3706 57.6634 34.5374C57.4727 34.2991 57.3059 34.0607 57.1152 33.8224C57.1391 33.3934 57.4966 33.4649 57.7587 33.3934C59.9752 32.9405 62.2156 32.4877 64.4321 32.0587C66.3149 31.6774 68.2216 31.3199 70.1044 30.9386C70.3427 30.9147 70.5811 30.8194 70.8432 30.9386Z" fill="#E74214"/>
<path d="M70.8422 30.9384C69.4837 31.2244 68.149 31.5104 66.7905 31.7964C63.6922 32.4161 60.57 33.0119 57.4478 33.6316C57.3048 33.6554 57.1857 33.7031 57.1142 33.8461C56.9473 33.6316 56.7567 33.4171 56.5898 33.1788C57.2095 32.7736 57.9483 32.8213 58.6395 32.6783C61.4042 32.1063 64.1927 31.5581 66.9812 31.0099C68.2205 30.7716 69.4837 30.5333 70.7468 30.2949C70.7945 30.5094 70.866 30.7239 70.8422 30.9384Z" fill="#E74214"/>
<path d="M30.1825 18.8311C30.3732 18.5928 30.5877 18.3783 30.8499 18.2114C34.2104 20.4518 37.6185 22.6206 40.979 24.8371C41.1935 24.9801 41.4557 25.0993 41.551 25.3853C41.4319 25.5998 41.3365 25.8143 41.2174 26.0288C41.0029 26.1718 40.836 25.9811 40.693 25.8858C38.6195 24.5749 36.5699 23.1926 34.4964 21.8579C33.1617 20.9999 31.827 20.1419 30.5162 19.2601C30.3494 19.1409 30.1349 19.0933 30.1825 18.8311Z" fill="#E74214"/>
<path d="M53.563 46.8828C54.3495 47.717 54.993 48.6465 55.6842 49.5283C57.2572 51.5065 58.8302 53.5085 60.4032 55.4866C60.4747 55.582 60.5224 55.6535 60.5462 55.7726C60.3317 55.9871 60.0934 56.1778 59.7835 56.297C59.1162 55.7488 58.6634 55.01 58.139 54.3426C56.5899 52.3645 55.0169 50.4101 53.4915 48.4081C53.3247 48.1936 53.0864 48.003 52.9434 47.7646C53.134 47.4548 53.3009 47.1211 53.563 46.8828Z" fill="#E74214"/>
<path d="M54.1113 24.742C54.3258 23.7648 54.8263 22.883 55.1838 21.9773C56.0895 19.6417 57.0428 17.3298 57.9962 15.018C58.0915 14.7797 58.163 14.4937 58.4252 14.3745C58.7112 14.4698 58.9972 14.589 59.2355 14.8035C57.9247 17.9257 56.6853 21.0717 55.4222 24.1938C55.3268 24.4322 55.303 24.7897 54.9217 24.7897C54.7072 24.7897 54.5165 24.8135 54.302 24.742C54.2305 24.742 54.159 24.742 54.1113 24.742Z" fill="#E74214"/>
<path d="M58.1853 57.1551C57.4465 56.2018 56.7315 55.2484 55.9927 54.2951C54.8725 52.8651 53.7285 51.4351 52.6083 50.0051C52.4415 49.7906 52.2985 49.5284 51.9648 49.4808C52.084 49.1233 52.2508 48.8134 52.4892 48.5036C52.799 48.3606 52.8943 48.6228 53.0373 48.7896C54.372 50.4103 55.6352 52.1024 56.946 53.7469C57.5657 54.5334 58.1853 55.2961 58.7812 56.1064C58.9242 56.2733 59.1863 56.4401 59.0433 56.7499C58.7812 56.8929 58.519 57.1074 58.1853 57.1551Z" fill="#E74214"/>
<path d="M38.2379 33.1789C36.4266 32.0111 34.6152 30.8432 32.8277 29.6754C30.5874 28.2216 28.3471 26.7677 26.1067 25.3139C25.9399 25.1947 25.7731 25.0994 25.6777 24.9087C25.7492 24.6704 25.8446 24.4559 26.0114 24.2891C28.6807 26.1004 31.4216 27.8164 34.1147 29.5801C35.5209 30.5096 36.9509 31.4152 38.3809 32.3447C38.4524 32.3924 38.5239 32.4639 38.5716 32.5354C38.5239 32.7976 38.3809 32.9882 38.2379 33.1789Z" fill="#E74214"/>
<path d="M46.6752 44.6187C47.1042 44.8808 46.9851 45.3337 47.0089 45.6912C47.1996 47.3357 47.3664 49.004 47.5332 50.6485C47.6524 51.8401 47.7477 53.0318 47.8669 54.2473C47.9861 55.4628 48.1291 56.6783 48.2721 57.87C48.3436 58.4896 48.3674 59.1093 48.4151 59.729C48.2006 59.729 47.9861 59.729 47.7716 59.7528C47.4379 59.0855 47.4856 58.3228 47.4141 57.6078C47.1757 55.296 46.9374 52.9603 46.6991 50.6485C46.5084 48.8133 46.3177 46.9543 46.1271 45.1192C46.1032 45 46.1271 44.8808 46.1509 44.7378C46.3177 44.6187 46.5084 44.6425 46.6752 44.6187Z" fill="#E74214"/>
<path d="M28.824 20.2609C28.9193 20.0703 29.0623 19.9273 29.253 19.8081C29.968 20.0226 30.5162 20.5231 31.1358 20.9283C34.0435 22.8349 36.9988 24.6939 39.8827 26.6244C40.1448 26.8151 40.4308 26.9343 40.7168 27.1011C40.6692 27.4109 40.5262 27.6731 40.3832 27.9591C40.1448 28.0306 39.978 27.8638 39.8112 27.7446C36.975 25.8856 34.115 24.0504 31.3027 22.1914C30.5877 21.7148 29.8488 21.2858 29.1577 20.7853C28.9432 20.6661 28.681 20.5708 28.824 20.2609Z" fill="#E74214"/>
<path d="M57.6621 34.5611C57.7098 34.2751 57.9481 34.2989 58.1626 34.2512C60.6651 33.7507 63.1676 33.2502 65.6463 32.7497C67.4099 32.3922 69.1736 32.0347 70.9611 31.6772C70.8896 31.9394 71.1041 32.1777 71.0564 32.4161C70.9134 32.5829 70.6989 32.6306 70.4844 32.6782C66.4089 33.4886 62.3096 34.2751 58.2341 35.1092C58.1864 35.1092 58.1388 35.1092 58.0673 35.1092C57.9004 34.9662 57.7574 34.7756 57.6621 34.5611Z" fill="#E74214"/>
<path d="M46.1498 44.738C46.4596 45.4053 46.3881 46.1203 46.4835 46.8115C46.698 48.5037 46.8648 50.1958 47.0316 51.8642C47.1508 53.0797 47.2461 54.2952 47.3653 55.5107C47.4845 56.7023 47.6513 57.894 47.7705 59.0857C47.7943 59.3002 47.7943 59.5147 47.7943 59.7292C47.5321 59.7292 47.27 59.8483 47.0316 59.7292C46.7456 57.6557 46.5788 55.5583 46.3643 53.461C46.0783 50.8155 45.8161 48.1462 45.554 45.4768C45.5301 45.2385 45.5063 45.024 45.6731 44.8095C45.7923 44.7142 45.983 44.738 46.1498 44.738Z" fill="#E74214"/>
<path d="M33.4241 33.5361C33.7101 33.7983 33.8293 34.132 33.9723 34.4656C33.7816 34.7278 33.4956 34.7516 33.2096 34.7755C30.1113 35.2045 27.0368 35.6573 23.9384 36.0863C23.7001 36.1101 23.4379 36.1578 23.2234 35.9671C23.1519 35.6811 23.1758 35.3951 23.1996 35.1091C23.3426 34.8946 23.5809 34.8708 23.8193 34.847C26.8461 34.418 29.8968 33.989 32.9474 33.56C33.0904 33.5361 33.2573 33.56 33.4241 33.5361Z" fill="#E74214"/>
<path d="M56.0413 46.2632C57.0185 46.3109 57.3283 47.1927 57.805 47.7885C59.3542 49.6952 60.8557 51.6495 62.3572 53.58C62.5002 53.7469 62.667 53.9375 62.6908 54.1758C62.524 54.3903 62.2857 54.5572 62.0473 54.7002C61.8328 54.6525 61.7137 54.5095 61.5945 54.3427C59.6402 51.8402 57.662 49.3615 55.7315 46.859C55.6123 46.6922 55.374 46.5492 55.517 46.2632C55.6838 46.2632 55.8745 46.2632 56.0413 46.2632Z" fill="#E74214"/>
<path d="M38.5484 32.5351C37.7143 32.2253 37.0231 31.6295 36.2843 31.1528C33.0191 29.0793 29.7778 26.9343 26.5364 24.8131C26.3219 24.6701 26.0121 24.5986 25.9883 24.265C26.0359 24.0505 26.1551 23.8836 26.2981 23.7168C29.9923 26.1716 33.7103 28.5311 37.3806 30.9621C37.8811 31.2958 38.4531 31.5341 38.8583 32.0108C38.7629 32.1776 38.6676 32.3683 38.5484 32.5351Z" fill="#E74214"/>
<path d="M57.544 13.9216C57.0435 14.16 57.0435 14.6843 56.8766 15.0656C55.6135 18.0925 54.4218 21.1431 53.1825 24.1938C53.1348 24.3368 53.0395 24.456 53.1348 24.599C52.6105 24.5036 52.682 23.9793 52.4913 23.6695C52.396 23.4788 52.4913 23.2881 52.5628 23.1213C53.7545 20.1421 54.9938 17.163 56.1855 14.16C56.2808 13.8978 56.3046 13.4926 56.8051 13.588C57.0673 13.6595 57.3295 13.7548 57.544 13.9216Z" fill="#E74214"/>
<path d="M55.5175 46.2634C55.9465 47.0976 56.6138 47.7411 57.162 48.4799C58.7827 50.5773 60.4272 52.6508 62.0478 54.7243C61.8333 54.9388 61.595 55.1294 61.309 55.2724C60.7132 54.2476 59.9028 53.4134 59.2117 52.4839C57.9962 50.8871 56.7568 49.3379 55.5175 47.7649C55.1838 47.3359 54.8263 46.9069 54.5165 46.4779C54.3973 46.3349 54.2782 46.2634 54.1113 46.2634C54.5642 46.0251 55.0408 46.2873 55.5175 46.2634Z" fill="#E74214"/>
<path d="M43.29 45.1906C43.3854 45.1906 43.4807 45.1668 43.576 45.1668C44.0527 45.0238 44.148 45.3575 44.1719 45.6911C44.2672 46.7875 44.4102 47.8838 44.5055 48.9801C44.7677 51.6256 45.0537 54.295 45.3159 56.9405C45.3874 57.6555 45.4827 58.3943 45.5304 59.1093C45.5542 59.3476 45.6257 59.7052 45.1729 59.6098C44.8869 59.6098 44.577 59.6336 44.3149 59.5145C44.6009 59.2523 44.5294 58.8948 44.5055 58.5611C44.3149 56.6783 44.1004 54.7716 43.9335 52.8888C43.6952 50.4816 43.4092 48.0745 43.2185 45.6673C43.1947 45.5243 43.147 45.3336 43.29 45.1906Z" fill="#E74214"/>
<path d="M41.5508 25.3615C38.2618 23.2165 34.9728 21.0954 31.7076 18.9265C31.3978 18.712 30.9688 18.6167 30.8496 18.1877C30.9926 17.997 31.1594 17.854 31.3739 17.7349C32.2081 18.1162 32.9231 18.6882 33.6858 19.1649C36.4028 20.9285 39.1198 22.6922 41.8368 24.4559C41.9083 24.5035 41.9559 24.5512 42.0036 24.5989C41.8368 24.8849 41.6938 25.1232 41.5508 25.3615Z" fill="#E74214"/>
<path d="M30.1829 18.8311C30.6596 19.3077 31.2792 19.6176 31.8274 19.9751C34.8781 21.9771 37.9526 23.9552 41.0032 25.9572C41.0509 26.0049 41.1462 26.0049 41.1939 26.0287C41.0986 26.2432 40.9794 26.4577 40.8841 26.6722C40.6457 26.8152 40.4789 26.6246 40.3121 26.5054C37.9764 24.9801 35.6169 23.4547 33.2812 21.9294C32.2087 21.2382 31.1124 20.5471 30.0637 19.8321C29.8731 19.6891 29.5871 19.5937 29.7301 19.2601C29.8731 19.0694 30.0161 18.9264 30.1829 18.8311Z" fill="#E74214"/>
<path d="M23.2469 35.9673C24.5339 35.9435 25.8209 35.6575 27.0841 35.4907C28.4664 35.3238 29.8488 35.1093 31.2311 34.8948C32.1368 34.7518 33.0663 34.7042 33.9481 34.4658C34.1149 34.6565 34.2103 34.871 34.2579 35.1093C34.2341 35.4907 33.9004 35.5145 33.6383 35.5622C31.8508 35.8243 30.0394 36.0865 28.2281 36.3248C26.8458 36.5155 25.4873 36.73 24.1049 36.8968C24.0096 36.9207 23.8904 36.9445 23.7951 36.9445C23.2708 36.9922 23.1754 36.8968 23.1754 36.3725C23.1754 36.2533 23.1278 36.0865 23.2469 35.9673Z" fill="#E74214"/>
<path d="M45.173 59.6336C45.4352 59.6097 45.4352 59.4191 45.4113 59.2284C45.2445 57.7269 45.0538 56.2016 44.9108 54.7001C44.7917 53.5322 44.6963 52.3882 44.5533 51.2204C44.4342 49.9572 44.2673 48.6941 44.1482 47.4309C44.1005 46.8589 44.0528 46.3107 44.029 45.7387C44.0052 45.4289 43.9813 45.1667 43.5762 45.1667C43.8145 45.0476 44.0767 45.0714 44.3388 45.0714C44.8155 44.9999 44.7678 45.4289 44.8155 45.6672C44.9108 46.4537 44.9823 47.2164 45.0538 48.0029C45.316 50.6961 45.602 53.3892 45.888 56.0824C46.0072 57.1311 46.1025 58.1797 46.1978 59.2284C46.2217 59.4191 46.2217 59.5859 46.0787 59.7289C45.7688 59.7289 45.459 59.7766 45.173 59.6336Z" fill="#E74214"/>
<path d="M33.4251 33.5362C33.1629 33.8699 32.7577 33.7746 32.4479 33.8222C30.1837 34.1797 27.9434 34.4896 25.6792 34.7994C24.8689 34.9186 24.0586 35.0139 23.2721 35.1331C23.1529 34.8232 23.2244 34.4896 23.2244 34.1797C23.3674 34.0367 23.5342 34.0129 23.7011 33.9891C26.7517 33.5124 29.8262 33.1311 32.9007 32.6782C33.1629 32.8927 33.2582 33.2264 33.4251 33.5362Z" fill="#E74214"/>
<path d="M59.0444 56.726C58.5916 55.9156 57.9481 55.2483 57.3999 54.5333C56.1606 52.9365 54.9212 51.3396 53.6581 49.7666C53.3006 49.3138 53.0622 48.7656 52.4902 48.5035C52.5856 48.2175 52.7762 47.9791 52.9431 47.7646C53.5866 48.0745 53.8726 48.718 54.2777 49.2185C55.8269 51.149 57.3522 53.1033 58.8776 55.0576C59.1874 55.4628 59.5449 55.8203 59.7832 56.297C59.5687 56.4638 59.3304 56.6306 59.0444 56.726Z" fill="#E74214"/>
<path d="M58.9015 36.4201C58.8062 36.2771 58.7109 36.1103 58.6394 35.9673C58.5202 35.6098 58.8062 35.5859 59.0207 35.5144C59.4259 35.3714 59.8549 35.3476 60.2839 35.2523C63.6205 34.5849 66.9572 33.9176 70.2939 33.2741C70.556 33.2264 70.842 33.0834 71.1042 33.2741C71.0804 33.6078 71.3425 33.9414 71.0327 34.2513C70.699 34.2274 70.3892 34.2751 70.0794 34.3466C66.6474 35.0616 63.1915 35.7051 59.7357 36.3963C59.4497 36.4678 59.1637 36.5869 58.9015 36.4201Z" fill="#E74214"/>
<path d="M32.5657 16.8289C32.804 16.5906 33.09 16.3999 33.4237 16.2808C33.5428 16.4953 33.7097 16.6383 33.9003 16.7813C36.8795 18.7356 39.8587 20.6423 42.8378 22.5966C42.9808 22.6919 43.1238 22.7396 43.1715 22.9303C43.0285 23.1209 42.9093 23.2878 42.7663 23.4784C42.4803 23.6691 42.2897 23.4546 42.099 23.3354C40.7167 22.4298 39.3343 21.5479 37.9758 20.6661C36.3552 19.6174 34.7583 18.5688 33.1377 17.5201C32.8755 17.3056 32.5418 17.2103 32.5657 16.8289Z" fill="#E74214"/>
<path d="M41.9789 24.6227C41.2877 24.4559 40.7634 23.9554 40.1914 23.5979C37.379 21.7865 34.5667 19.9514 31.7782 18.0924C31.6352 17.997 31.4445 17.9494 31.373 17.7587C31.5399 17.5442 31.7782 17.3774 32.0165 17.2344C34.7097 19.0457 37.4505 20.7855 40.1437 22.5492C40.7634 22.9544 41.383 23.3834 42.0265 23.7885C42.1457 23.86 42.2649 23.9315 42.3125 24.0984C42.1934 24.2652 42.098 24.4559 41.9789 24.6227Z" fill="#E74214"/>
<path d="M39.9541 29.127C39.9303 29.3177 39.8826 29.5084 39.7634 29.6752C39.5251 29.8182 39.3583 29.6275 39.1914 29.5322C37.4278 28.4359 35.7118 27.2919 33.9719 26.1717C32.0176 24.9085 30.0394 23.6215 28.1089 22.3345C27.8944 22.1915 27.6084 22.12 27.6323 21.7625C27.7753 21.5719 27.9183 21.405 28.0613 21.2144C30.9451 23.1687 33.9004 25.0277 36.8319 26.9344C37.7614 27.5302 38.6671 28.1737 39.6204 28.7457C39.7634 28.8172 39.9064 28.9364 39.9541 29.127Z" fill="#E74214"/>
<path d="M51.4412 50.744C51.7272 50.601 51.8225 50.8632 51.9417 51.0062C53.6577 53.1512 55.3499 55.32 57.042 57.4889C57.0897 57.5365 57.0897 57.6318 57.1135 57.6795C56.8275 57.8702 56.4939 58.037 56.1364 58.1085C55.8027 57.9417 55.6597 57.608 55.4214 57.322C54.0152 55.5583 52.6329 53.747 51.2029 51.9834C51.1552 51.9357 51.1314 51.8642 51.1075 51.7927C51.179 51.4352 51.2982 51.0777 51.4412 50.744Z" fill="#E74214"/>
<path d="M32.8769 32.6546C32.6624 32.9883 32.3049 32.9168 32.0189 32.9406C29.5164 33.3219 26.9901 33.6556 24.4637 34.0131C24.0586 34.0608 23.6534 34.0846 23.2482 34.1323C23.1767 34.1084 23.1529 34.0608 23.2006 33.9893C23.2006 33.5841 23.1767 33.2028 23.2959 32.7976C23.5581 32.9644 23.8202 32.9644 24.1062 32.9168C26.6087 32.5593 29.1351 32.2256 31.6376 31.8443C31.8282 31.8204 32.0189 31.7966 32.2334 31.8204C32.5194 32.1064 32.7101 32.3686 32.8769 32.6546Z" fill="#E74214"/>
<path d="M58.9023 36.4201C60.6183 36.0864 62.3343 35.7527 64.0503 35.3952C66.243 34.9662 68.4118 34.5372 70.6045 34.1082C70.7952 34.0606 70.9143 34.0367 70.962 34.2751C71.1527 34.5849 71.1765 34.8709 70.9143 35.1331C70.6045 35.0377 70.2947 35.0616 69.961 35.1331C66.6005 35.8242 63.24 36.4677 59.8795 37.1351C59.7127 37.1589 59.522 37.2066 59.3552 37.1827C59.1883 36.9206 59.0453 36.6584 58.9023 36.4201Z" fill="#E74214"/>
<path d="M41.6225 58.99C42.0992 58.847 41.8847 58.4418 41.8608 58.1797C41.7417 56.845 41.5987 55.5103 41.4557 54.1757C41.2888 52.6265 41.0982 51.0773 40.9313 49.5282C40.8122 48.3365 40.693 47.121 40.5977 45.9293C40.5738 45.7387 40.5977 45.548 40.4785 45.3573C40.7407 45.2858 41.0028 45.2858 41.265 45.3573C41.5033 45.7387 41.4318 46.1915 41.4795 46.5967C41.8132 49.9333 42.1707 53.2462 42.5043 56.5828C42.5758 57.2978 42.6712 58.0367 42.7188 58.7517C42.7188 58.9185 42.7665 59.1092 42.6473 59.276C42.3137 59.2045 41.9562 59.0853 41.6225 58.99Z" fill="#E74214"/>
<path d="M43.2912 45.1909C43.4342 46.5971 43.5772 48.0032 43.7202 49.4094C43.8393 50.6011 44.0062 51.7927 44.1253 52.9844C44.2445 54.1284 44.3637 55.2724 44.459 56.4164C44.5543 57.3221 44.5543 58.2277 44.7212 59.1096C44.7927 59.5624 44.602 59.5386 44.316 59.5624C44.2683 59.5624 44.1968 59.5386 44.1492 59.5386C43.744 58.9427 43.8632 58.2277 43.7917 57.5604C43.4818 54.8672 43.2435 52.1741 42.9575 49.4809C42.8383 48.3369 42.743 47.1691 42.6 46.0251C42.5762 45.7867 42.5523 45.5246 42.6238 45.2862C42.8383 45.1671 43.0528 45.1909 43.2912 45.1909Z" fill="#E74214"/>
<path d="M60.1174 38.6607C59.9744 38.4701 59.8553 38.2556 59.8076 38.0172C59.6884 37.7551 59.8553 37.6597 60.0459 37.5882C60.2128 37.5167 60.3796 37.4929 60.5703 37.4452C63.6924 36.8494 66.8146 36.2059 69.9368 35.6101C70.2466 35.5624 70.5803 35.4194 70.8186 35.7531C70.9139 36.1344 70.9139 36.4919 70.5803 36.7779C70.2466 36.7064 69.9129 36.7302 69.5793 36.8017C66.5048 37.4214 63.4303 38.0172 60.3558 38.6607C60.2604 38.6607 60.1889 38.6607 60.1174 38.6607Z" fill="#E74214"/>
<path d="M42.6235 45.2622C42.9095 45.6435 42.7665 46.1202 42.838 46.5492C43.0525 48.0984 43.1479 49.6714 43.2909 51.2444C43.4815 53.151 43.7199 55.0815 43.9105 56.9882C44.0059 57.8224 44.0535 58.6804 44.1489 59.5145C43.9344 59.5145 43.696 59.586 43.5054 59.4192C43.124 58.7519 43.2194 57.9892 43.1479 57.2742C42.8619 54.6287 42.5997 51.9832 42.3375 49.3615C42.2184 48.2175 42.123 47.0497 41.98 45.9057C41.9562 45.6912 41.9562 45.4767 42.123 45.3099C42.266 45.286 42.4329 45.286 42.6235 45.2622Z" fill="#E74214"/>
<path d="M32.2554 31.868C31.7311 32.1778 31.1352 32.1301 30.5632 32.2016C28.5851 32.5115 26.5831 32.7736 24.6049 33.0596C24.3189 33.1073 24.0567 33.1311 23.7707 33.1788C23.5086 33.2265 23.3179 33.1311 23.3179 32.8213C23.3179 32.5353 23.2941 32.2493 23.4371 31.9633C24.7956 31.9395 26.1302 31.6296 27.4649 31.4628C28.7757 31.296 30.0627 31.0576 31.3736 30.9385C31.7549 31.1768 32.0171 31.5105 32.2554 31.868Z" fill="#E74214"/>
<path d="M70.7458 35.7764C70.3645 35.4666 69.9832 35.7526 69.6257 35.8002C66.5989 36.3722 63.572 36.9681 60.569 37.5877C60.3069 37.6354 59.8779 37.5401 59.8064 38.0167C59.6634 37.7307 59.5203 37.4686 59.3535 37.1826C60.0447 36.8012 60.855 36.8012 61.5939 36.6344C64.4539 36.0386 67.3139 35.4904 70.1739 34.9422C70.3407 34.9184 70.7697 34.5132 70.8412 35.1091C70.9842 35.3712 71.0795 35.6096 70.7458 35.7764Z" fill="#E74214"/>
<path d="M28.8245 20.2612C28.8245 20.4042 28.896 20.4757 29.0152 20.5472C32.8047 23.0021 36.5942 25.4807 40.3837 27.9356C40.3122 28.1262 40.2407 28.2931 40.1692 28.4837C39.9547 28.6267 39.7879 28.4599 39.6449 28.3407C37.6667 27.1014 35.7124 25.7906 33.758 24.5274C32.1135 23.4787 30.4929 22.4062 28.8722 21.3337C28.6577 21.1907 28.3479 21.1192 28.3955 20.7617C28.5147 20.5949 28.6815 20.4281 28.8245 20.2612Z" fill="#E74214"/>
<path d="M28.3723 20.7856C28.6583 21.2146 29.135 21.4053 29.564 21.6675C32.5908 23.6456 35.6177 25.6238 38.6683 27.5781C39.1688 27.888 39.6217 28.2455 40.1698 28.4838C40.0983 28.6983 40.0268 28.9128 39.9553 29.1273C36.3803 26.8155 32.8053 24.4798 29.2303 22.1441C28.8252 21.882 28.277 21.7151 28.0625 21.1908C28.134 21.024 28.2293 20.881 28.3723 20.7856Z" fill="#E74214"/>
<path d="M42.3136 24.0984C41.0027 23.2404 39.6919 22.4062 38.3811 21.5482C36.4267 20.285 34.4724 19.0219 32.5181 17.7587C32.3274 17.6395 32.0414 17.568 32.0176 17.2582C32.1606 17.0675 32.3512 16.9484 32.5657 16.853C32.7087 17.139 32.9947 17.282 33.2331 17.4489C36.2361 19.4032 39.2391 21.3575 42.2659 23.3119C42.4089 23.4072 42.5519 23.5264 42.7426 23.5025C42.6472 23.6932 42.4804 23.9077 42.3136 24.0984Z" fill="#E74214"/>
<path d="M63.5501 53.413C63.2402 52.7456 62.7159 52.2451 62.263 51.6731C60.9045 49.8856 59.4984 48.1219 58.1161 46.3583C58.0684 46.3106 57.9969 46.2868 57.9492 46.2391C58.2591 46.1199 58.5927 46.1438 58.9264 46.1438C59.2124 46.0246 59.3554 46.1676 59.4984 46.3821C61.0237 48.3603 62.5729 50.3623 64.1459 52.2928C64.2412 52.412 64.3604 52.5073 64.2889 52.6741C64.0982 52.9601 63.8599 53.2223 63.5501 53.413Z" fill="#E74214"/>
<path d="M29.7532 19.2363C29.7532 19.4508 29.8962 19.5462 30.0631 19.6415C33.6142 21.9533 37.1892 24.289 40.7404 26.6247C40.7881 26.6485 40.8357 26.6485 40.8834 26.6723C40.8834 26.863 40.6451 26.9107 40.6689 27.1013C40.3829 27.2205 40.1922 27.0298 40.0016 26.8868C36.9986 24.9325 33.9956 22.9543 30.9687 21C30.3729 20.6187 29.7532 20.2612 29.2051 19.8083C29.3719 19.57 29.5626 19.4032 29.7532 19.2363Z" fill="#E74214"/>
<path d="M32.8524 39.6137C32.7094 39.9236 32.5664 40.2572 32.4234 40.5671C32.2089 40.7339 31.9705 40.7577 31.7084 40.8054C29.325 41.1391 26.9417 41.4489 24.5345 41.8064C24.3439 41.8302 24.1532 41.9017 23.9625 41.7349C23.8434 41.4489 23.748 41.1867 23.748 40.8769C23.891 40.5909 24.177 40.5909 24.4392 40.5432C26.9894 40.1619 29.5157 39.8044 32.0659 39.4469C32.3519 39.4469 32.6379 39.3992 32.8524 39.6137Z" fill="#E74214"/>
<path d="M53.182 12.42C53.4918 12.42 53.754 12.5153 54.0161 12.6345C53.2058 14.1598 52.6815 15.8043 52.0141 17.4012C51.6566 18.2592 51.323 19.1172 50.9893 19.9752C50.894 20.2135 50.8225 20.4518 50.5841 20.571C50.3696 20.285 50.1551 20.0228 49.9406 19.7368C49.8453 19.4985 49.893 19.284 49.9883 19.0695C50.7986 17.0198 51.609 14.994 52.4431 12.9443C52.5623 12.6345 52.6815 12.2532 53.182 12.42Z" fill="#E74214"/>
<path d="M33.9488 44.3091C34.1633 44.3806 34.3778 44.4521 34.5923 44.5474C34.8783 44.7142 34.9022 45.0002 34.9498 45.2862C35.212 47.8602 35.4742 50.4104 35.7363 52.9844C35.8078 53.8186 35.9032 54.6527 35.9985 55.4869C36.0223 55.7014 36.07 55.9159 35.927 56.1066C35.4027 56.1542 35.0452 55.8921 34.8783 55.2724C34.8783 53.8424 34.64 52.4362 34.5208 51.0301C34.3302 48.9566 34.0918 46.9069 33.9012 44.8334C33.8535 44.6427 33.8058 44.4759 33.9488 44.3091Z" fill="#E74214"/>
<path d="M46.0793 59.7291C45.9363 58.4421 45.7933 57.1789 45.6741 55.8919C45.5549 54.7002 45.4596 53.5086 45.3404 52.3169C45.2213 51.0776 45.0544 49.8621 44.9353 48.6466C44.8399 47.7409 44.7923 46.8591 44.6969 45.9534C44.6731 45.6436 44.7684 45.2623 44.3633 45.0954C44.6016 44.9763 44.8638 44.9763 45.1259 45.0239C45.3404 45.2146 45.3643 45.4529 45.3881 45.7151C45.8409 50.1958 46.2938 54.6526 46.7704 59.1333C46.7943 59.3716 46.8181 59.5861 46.6513 59.8006C46.4368 59.7291 46.2461 59.7291 46.0793 59.7291Z" fill="#E74214"/>
<path d="M43.149 22.9064C41.6237 21.9292 40.0983 20.9521 38.573 19.9749C36.9047 18.9024 35.2363 17.8061 33.568 16.7336C33.3535 16.5906 33.282 16.4952 33.4012 16.2807V16.2569C33.5918 16.1854 33.7348 16.0186 33.9732 16.0186C34.7835 16.4714 35.5462 17.0196 36.3088 17.5201C38.5492 18.9501 40.7657 20.4277 42.9822 21.8577C43.1967 22.0007 43.435 22.1437 43.578 22.3821C43.435 22.5489 43.292 22.7396 43.149 22.9064Z" fill="#E74214"/>
<path d="M35.3548 44.7617C35.5931 44.8332 35.8553 44.8809 36.0936 44.9524C36.4035 45.6674 36.3796 46.4539 36.4511 47.1927C36.6895 49.5045 36.9278 51.7925 37.1661 54.1044C37.2376 54.9147 37.3091 55.725 37.4045 56.5592C37.4283 56.7737 37.4283 56.9882 37.2853 57.1789C36.8325 57.2266 36.5226 57.0359 36.3558 56.6069C36.3558 55.1292 36.1175 53.6754 35.9745 52.1977C35.76 50.005 35.5455 47.8124 35.3071 45.6197C35.2833 45.3337 35.2356 45.0477 35.3548 44.7617Z" fill="#E74214"/>
<path d="M50.5605 20.5708C51.5854 18.0444 52.6102 15.5419 53.635 13.0156C53.7065 12.8249 53.7542 12.6343 54.0164 12.6343C54.2785 12.6581 54.5407 12.7058 54.7552 12.8488C54.6837 13.3016 54.4454 13.7068 54.2785 14.1358C53.3967 16.3761 52.4672 18.6164 51.5615 20.8568C51.4662 21.0713 51.4185 21.3096 51.204 21.4288C50.9895 21.1666 50.775 20.8568 50.5605 20.5708Z" fill="#E74214"/>
<path d="M33.1857 53.4135C33.567 53.3181 33.424 53.0083 33.4002 52.7938C33.281 51.483 33.138 50.1483 32.995 48.8375C32.8282 47.2883 32.6614 45.7391 32.4945 44.2138C32.4707 43.9993 32.4707 43.7848 32.4707 43.5703C32.7567 43.6656 32.995 43.8325 33.2095 43.9993C33.6147 44.476 33.5194 45.0956 33.567 45.6438C33.8292 48.337 34.139 51.054 34.4012 53.7471C34.425 54.0331 34.5204 54.3191 34.2344 54.5336C33.7339 54.486 33.281 53.9855 33.1857 53.4135Z" fill="#E74214"/>
<path d="M26.6558 23.2167C26.7273 23.0022 26.8226 22.8354 26.9895 22.6924C29.349 24.2415 31.7323 25.7907 34.1156 27.3399C35.6886 28.3647 37.2616 29.3895 38.8346 30.3905C39.0253 30.5097 39.2398 30.6289 39.3351 30.8434C39.359 31.0579 39.2636 31.2247 39.1445 31.3915C38.93 31.463 38.8108 31.32 38.6678 31.2247C36.4751 29.7947 34.3063 28.3885 32.1136 26.9585C30.4453 25.8622 28.777 24.7659 27.0848 23.6934C26.8941 23.5742 26.632 23.5027 26.6558 23.2167Z" fill="#E74214"/>
<path d="M35.3545 44.7619C35.569 45.2385 35.4975 45.739 35.5451 46.2157C35.7596 48.0985 35.9026 50.0052 36.1171 51.9119C36.284 53.3657 36.4508 54.8195 36.5461 56.2734C36.5461 56.4164 36.5938 56.5594 36.427 56.6309C36.0456 56.6547 35.8311 56.464 35.7596 56.1065C36.0218 55.606 35.7596 55.0817 35.7358 54.5812C35.712 53.6755 35.5451 52.7699 35.4498 51.8404C35.3068 50.601 35.1876 49.3617 35.0446 48.0985C34.9493 47.2644 34.8778 46.4064 34.8063 45.5722C34.7825 45.2147 34.711 44.881 34.5918 44.5474C34.854 44.6189 35.0923 44.6904 35.3545 44.7619Z" fill="#E74214"/>
<path d="M34.0432 54.4857C34.4007 54.4142 34.2815 54.1282 34.2577 53.9137C34.0908 52.1977 33.924 50.5055 33.7333 48.7895C33.5665 47.1927 33.3758 45.5959 33.209 43.999C33.495 44.0229 33.7333 44.1659 33.9717 44.3089C34.1147 45.7389 34.2577 47.145 34.4007 48.575C34.5675 50.1242 34.782 51.6495 34.9012 53.1987C34.9488 53.8899 35.2587 54.6287 34.925 55.3199C34.4483 55.2245 34.1623 54.9385 34.0432 54.4857Z" fill="#E74214"/>
<path d="M53.1817 12.4201C52.9434 12.3963 52.7765 12.4917 52.6812 12.73C51.7755 15.018 50.846 17.306 49.9404 19.594C49.9165 19.6416 49.9165 19.6893 49.9165 19.7608C49.6305 19.451 49.3684 19.1411 49.0824 18.8313C49.0109 18.6645 49.1062 18.5215 49.1539 18.3785C49.9165 16.4956 50.6792 14.589 51.418 12.7062C51.561 12.3487 51.7279 12.0388 52.1807 12.2295C52.5382 12.2057 52.8719 12.2771 53.1817 12.4201Z" fill="#E74214"/>
<path d="M46.6027 59.7293C46.4597 58.4185 46.3167 57.1077 46.1975 55.773C46.0783 54.6052 45.983 53.4135 45.8638 52.2457C45.7447 50.9587 45.6017 49.6717 45.4587 48.4085C45.3872 47.622 45.268 46.8355 45.2442 46.0252C45.2203 45.6677 45.125 45.334 45.125 44.9765C45.2918 44.8335 45.4587 44.8335 45.6493 44.8335C45.7923 46.1205 45.9353 47.4075 46.0545 48.6945C46.1498 49.5287 46.1975 50.3628 46.2928 51.1732C46.4358 52.4602 46.5788 53.7472 46.698 55.0342C46.8172 56.2258 46.9602 57.4413 47.0317 58.633C47.0555 58.9905 47.3653 59.3957 47.0317 59.7532C46.8887 59.7532 46.7457 59.7532 46.6027 59.7293Z" fill="#E74214"/>
<path d="M34.6159 36.611C34.449 36.8732 34.2822 37.1115 34.0915 37.3737C33.2574 37.5882 32.3994 37.6359 31.5652 37.7789C29.0627 38.1602 26.5364 38.4939 24.0339 38.8275C23.7479 38.8752 23.438 38.9467 23.3427 38.5415C23.295 38.2555 23.1997 37.9695 23.2474 37.6835C23.4619 37.8742 23.7002 37.8742 23.9862 37.8265C27.156 37.3499 30.302 36.9209 33.4719 36.4919C33.8532 36.468 34.2822 36.182 34.6159 36.611Z" fill="#E74214"/>
<path d="M60.6658 39.9235C60.5466 39.7567 60.4751 39.5898 60.4513 39.3753C60.3321 39.1132 60.5228 39.0178 60.6896 38.9463C60.8326 38.8748 60.9994 38.851 61.1424 38.8272C63.9309 38.2552 66.7433 37.7308 69.5318 37.1827C69.8416 37.1112 70.2229 36.992 70.4136 37.421C70.4374 37.707 70.4136 37.993 70.1276 38.1598C67.2199 38.708 64.3361 39.3038 61.4523 39.8758C61.1901 39.9235 60.9279 40.0188 60.6658 39.9235Z" fill="#E74214"/>
<path d="M66.1223 50.6009C65.9078 50.9345 65.7171 51.2682 65.3834 51.4827C64.7161 50.863 64.2156 50.1004 63.6674 49.3854C62.8809 48.4082 62.0944 47.4072 61.3318 46.4062C61.1649 46.1679 60.9266 46.001 60.7598 45.7865C60.9981 45.6674 61.2603 45.6197 61.5224 45.572C61.5701 45.5244 61.6178 45.429 61.6893 45.4052C61.8799 45.3337 62.0706 45.3337 62.2613 45.4052C63.0478 46.3585 63.7866 47.3357 64.5493 48.289C65.0021 48.861 65.4788 49.433 65.9078 50.005C65.9793 50.2195 66.1461 50.3625 66.1223 50.6009Z" fill="#E74214"/>
<path d="M58.2102 24.6464C58.0196 24.7656 57.7812 24.7417 57.5667 24.7417C56.9947 24.8132 56.8756 24.6702 57.1139 24.0744C58.0434 21.7387 58.9729 19.403 59.9262 17.0674C60.0692 16.7337 60.1884 16.4 60.3314 16.0902C60.4267 15.8995 60.4744 15.6612 60.7842 15.7327C61.0226 15.828 61.2609 15.9472 61.3801 16.1856C61.3562 16.5669 61.1417 16.8529 60.9987 17.1865C60.0931 19.4269 59.2112 21.6911 58.3056 23.9314C58.2341 24.1459 58.1387 24.3842 58.2102 24.6464Z" fill="#E74214"/>
<path d="M34.0422 54.4859C34.2806 54.7958 34.5666 55.1056 34.9002 55.3439C35.1386 55.6538 35.4007 55.9159 35.7582 56.1066C35.9251 56.3449 36.1634 56.5118 36.4256 56.6309C36.6401 56.8693 36.9022 57.0123 37.1882 57.1791C37.3312 57.2506 37.5696 57.2268 37.5219 57.4889C35.8297 56.8454 34.2806 55.8683 32.8267 54.7958C31.8972 54.1046 30.9677 53.3658 30.2051 52.4839C30.8247 52.0311 31.5397 52.0311 32.2547 52.0549C32.5884 52.5078 32.8029 53.0559 33.2081 53.4373C33.4226 53.8186 33.7086 54.1761 34.0422 54.4859Z" fill="#E74214"/>
<path d="M51.2031 21.4529C51.9896 19.4748 52.7761 17.5205 53.5626 15.5423C53.8963 14.732 54.2061 13.9455 54.516 13.1351C54.5636 13.016 54.6113 12.9206 54.7305 12.8491C54.9688 12.873 55.1833 12.9445 55.374 13.0636C55.4693 13.2781 55.3501 13.4926 55.2786 13.6833C54.1823 16.305 53.1575 18.9743 52.085 21.596C51.9896 21.8343 51.9181 22.0726 51.6321 22.1441C51.4653 21.9535 51.2985 21.7151 51.2031 21.4529Z" fill="#E74214"/>
<path d="M70.1034 38.136C70.2464 37.9453 70.294 37.7308 70.3179 37.4925C70.4132 37.2542 70.2702 36.9443 70.5324 36.7537C70.6754 36.4438 70.7469 36.134 70.7469 35.7765C70.9137 35.5858 70.8422 35.3475 70.866 35.133C71.0567 34.8708 70.9375 34.561 70.9614 34.275C71.152 33.9652 71.0329 33.6315 71.0567 33.2978C70.9614 33.1787 70.9137 33.0118 70.9375 32.8688C70.9375 32.7497 70.9852 32.6305 71.0805 32.5352C71.2474 32.988 71.1997 33.4885 71.2474 33.9652C71.438 36.6583 71.2235 39.3277 70.5085 41.9493C70.4847 41.997 70.4609 42.0447 70.437 42.0923C69.7697 41.6872 69.3407 41.0913 69.0547 40.3763C69.1262 40.0903 69.2454 39.852 69.3645 39.5898C69.5075 39.3753 69.6029 39.1608 69.6982 38.9225C69.8174 38.6603 69.865 38.3267 70.1034 38.136Z" fill="#E74214"/>
<path d="M31.3744 30.9624C30.7786 31.3199 30.0874 31.2484 29.4201 31.3676C27.7756 31.6297 26.1072 31.8442 24.4389 32.1064C24.1767 32.1541 23.9146 32.1064 23.6524 32.2017C23.4856 32.2732 23.4379 32.1302 23.4141 31.9872C23.4141 31.7012 23.4379 31.4152 23.5332 31.1531C24.8917 31.1292 26.2502 30.8194 27.5849 30.6764C28.3714 30.5811 29.1579 30.4381 29.9444 30.3189C30.1351 30.2951 30.3019 30.2712 30.3734 30.0806C30.8501 30.2474 31.0169 30.7241 31.3744 30.9624Z" fill="#E74214"/>
<path d="M39.2155 45.4052C39.7399 45.2861 39.8352 45.5244 39.8829 46.0249C39.9544 47.2642 40.145 48.5274 40.2642 49.7668C40.3834 50.9346 40.4787 52.0786 40.5979 53.2464C40.717 54.5096 40.86 55.7727 41.003 57.0359C41.0507 57.4649 41.0984 57.9177 41.1222 58.3467C41.146 58.5851 41.1222 58.7757 40.7885 58.7519C40.6694 58.7519 40.5502 58.7281 40.4549 58.6566C40.2404 57.6318 40.2165 56.5831 40.0974 55.5344C39.8114 52.9127 39.5492 50.2911 39.287 47.6694C39.2394 46.9306 39.0487 46.1679 39.2155 45.4052Z" fill="#E74214"/>
<path d="M70.5328 36.7301C70.5328 36.9923 70.4612 37.2545 70.3182 37.469C70.2467 37.1115 69.9607 37.2306 69.7462 37.2783C66.8624 37.8265 63.9786 38.3985 61.0947 38.9943C60.8564 39.042 60.4751 38.9705 60.4274 39.3995C60.2606 39.185 60.1652 38.9228 60.0938 38.6606C60.1891 38.47 60.3559 38.47 60.5466 38.4223C63.6687 37.8026 66.7909 37.1591 69.9131 36.5395C70.1276 36.5156 70.4136 36.3726 70.5328 36.7301Z" fill="#E74214"/>
<path d="M32.8512 39.6138C31.5404 39.6138 30.2534 39.9236 28.9664 40.0905C27.5602 40.2573 26.1779 40.4956 24.7717 40.6863C24.4381 40.734 24.1044 40.7578 23.7946 40.9008C23.6754 40.591 23.6039 40.2811 23.5801 39.9475C25.9634 39.59 28.3467 39.2563 30.7301 38.9226C31.3736 38.8273 31.9932 38.732 32.6367 38.6605C32.8751 38.6366 33.0896 38.5651 33.3041 38.7558C33.1372 39.0418 32.9942 39.3278 32.8512 39.6138Z" fill="#E74214"/>
<path d="M23.223 34.0127C23.2468 34.0604 23.2468 34.108 23.2706 34.1557C23.2706 34.4655 23.2468 34.7992 23.2468 35.109C23.2468 35.395 23.2468 35.681 23.2468 35.967C23.2468 36.0624 23.2468 36.1339 23.2468 36.2292C23.2468 36.825 23.3421 36.8965 23.938 36.8012C25.4156 36.5867 26.8695 36.396 28.3471 36.1815C29.9678 35.9432 31.5885 35.7049 33.233 35.4665C33.6143 35.4189 34.0195 35.5142 34.3055 35.1329C34.4246 35.2759 34.52 35.4427 34.52 35.6334C34.6153 36.0624 34.3055 36.0862 34.0195 36.1339C32.8516 36.3245 31.6838 36.4675 30.5398 36.6344C28.3471 36.9204 26.1783 37.254 23.9856 37.5639C23.7473 37.5877 23.4851 37.683 23.2706 37.4924C23.1038 36.3245 23.0561 35.1567 23.223 34.0127Z" fill="#E74214"/>
<path d="M60.737 45.8106C61.0706 45.7629 61.1898 46.0727 61.3328 46.2634C62.6675 47.9317 63.9783 49.6239 65.2891 51.2922C65.3368 51.3399 65.3368 51.4352 65.3606 51.4829C65.2176 51.7927 65.0031 52.0311 64.7171 52.2456C63.9306 51.3399 63.2156 50.3628 62.453 49.4094C61.7856 48.5753 61.1421 47.7172 60.4748 46.8831C60.2126 46.5732 59.9743 46.2396 59.6406 46.0012C60.022 45.9059 60.3795 45.8344 60.737 45.8106Z" fill="#E74214"/>
<path d="M49.5835 55.9874C49.5596 55.9159 49.512 55.8206 49.4881 55.7491C49.3928 54.1761 49.1068 52.6031 48.9638 51.0301C48.8446 49.8146 48.7493 48.5991 48.6301 47.3836C48.5348 46.3587 48.4156 45.3577 48.3203 44.3329C48.4156 44.3329 48.511 44.3091 48.6063 44.3091C48.8923 44.3091 49.0353 44.3567 49.083 44.7142C49.2021 46.1204 49.3213 47.5266 49.512 48.9089C49.655 49.8861 49.6073 50.8871 49.941 51.8404C49.6788 53.1989 49.5596 54.5812 49.5835 55.9874Z" fill="#E74214"/>
<path d="M23.9844 41.759C26.2724 41.4254 28.5604 41.1155 30.8484 40.7819C31.3727 40.7104 31.897 40.5912 32.4214 40.5674C32.2784 40.8772 32.1592 41.2109 32.0162 41.5207C31.7779 41.7352 31.468 41.6637 31.2059 41.7114C29.0847 42.0212 26.9635 42.3311 24.8424 42.6171C24.6279 42.6409 24.3895 42.7601 24.2227 42.4979C24.1035 42.2596 24.0082 42.0212 23.9844 41.759Z" fill="#E74214"/>
<path d="M23.2461 37.4685C24.4139 37.3016 25.5818 37.1586 26.7734 36.9918C28.2034 36.8011 29.6334 36.5866 31.0873 36.396C32.1121 36.253 33.1608 36.11 34.1856 35.967C34.4001 35.9431 34.4954 35.824 34.5193 35.6333C34.6146 35.967 35.0436 36.253 34.6384 36.6343C33.9949 36.4436 33.3753 36.7058 32.7556 36.7773C31.3256 36.9441 29.8956 37.1825 28.4418 37.3731C27.0594 37.5638 25.6771 37.7783 24.2948 37.969C24.0564 37.9928 23.7943 37.9928 23.5559 38.0405C23.2223 38.112 23.4368 37.7545 23.2699 37.7068C23.2461 37.6115 23.2461 37.54 23.2461 37.4685Z" fill="#E74214"/>
<path d="M54.9693 24.7416C55.5174 23.7883 55.8273 22.7158 56.2324 21.7148C57.1381 19.5221 58.0199 17.3056 58.9018 15.113C58.9733 14.9461 58.9971 14.8031 59.2116 14.7793C59.4023 14.8985 59.5691 14.9938 59.7598 15.113C58.9494 17.1865 58.0914 19.2361 57.2573 21.2858C56.8759 22.2868 56.4708 23.264 56.0656 24.265C55.9703 24.4795 55.8988 24.694 55.7081 24.837C55.4698 24.837 55.2076 24.837 54.9693 24.837C54.9454 24.8131 54.9216 24.7893 54.9454 24.7893C54.9454 24.7416 54.9693 24.7416 54.9693 24.7416Z" fill="#E74214"/>
<path d="M31.6124 42.998C31.5648 43.1887 31.5171 43.4032 31.3741 43.57C29.3959 43.8799 27.3939 44.142 25.3919 44.428C25.2013 44.4519 25.0106 44.4519 24.8438 44.3089C24.6769 44.0229 24.5578 43.6892 24.4863 43.3555C24.9391 43.0695 25.4634 43.0933 25.9878 43.0218C27.7991 42.7835 29.5866 42.5214 31.3741 42.2592C31.5171 42.2354 31.6601 42.2115 31.8031 42.283C31.7316 42.5214 31.6839 42.7597 31.6124 42.998Z" fill="#E74214"/>
<path d="M70.104 38.1363C70.0802 38.4461 69.9372 38.7083 69.7703 38.9943C67.1963 39.4948 64.6223 40.0191 62.0483 40.5196C61.6908 40.5911 61.3095 40.6626 60.9758 40.8294C60.8805 40.5434 60.7613 40.2336 60.666 39.9476C61.7623 39.5901 62.9064 39.4709 64.0265 39.2326C65.9332 38.8274 67.8399 38.4699 69.7465 38.0886C69.8657 38.0409 69.9849 37.9694 70.104 38.1363Z" fill="#E74214"/>
<path d="M24.8438 44.3089C26.0592 44.1421 27.2509 43.9991 28.4664 43.8323C29.3006 43.7131 30.1348 43.5701 30.9928 43.4509C31.1358 43.4271 31.2788 43.4271 31.3741 43.5463C31.1834 43.9276 31.3026 44.3804 31.0643 44.7379C29.3483 44.9524 27.6561 45.1908 25.9639 45.4291C25.7494 45.4529 25.5111 45.5244 25.2966 45.3576C25.1059 45.0478 24.9391 44.6903 24.8438 44.3089Z" fill="#E74214"/>
<path d="M51.1313 51.8164C51.751 52.1977 52.0846 52.8651 52.5136 53.4132C53.6815 54.8432 54.8016 56.2971 55.9218 57.7509C56.0171 57.8701 56.0648 57.9892 56.1363 58.1084C55.8741 58.2514 55.5881 58.3706 55.2783 58.4421C53.9436 56.7261 52.5851 55.0101 51.2743 53.2941C51.1551 53.1511 51.036 53.0557 50.8691 52.9842C50.9168 52.5791 50.9883 52.1977 51.1313 51.8164Z" fill="#E74214"/>
<path d="M33.9486 16.0664C33.7579 16.1141 33.6149 16.2809 33.4004 16.2571C34.7589 15.1846 36.2842 14.3742 37.8572 13.6831C38.9536 13.2064 40.0499 12.7774 41.2416 12.5391C41.1462 13.2064 40.8126 13.7784 40.5742 14.3742C40.4551 14.6602 40.0976 14.5649 39.8592 14.6602C39.8116 14.6841 39.7401 14.6841 39.6924 14.6841C39.3111 14.6841 38.9536 14.7794 38.5961 14.8032C38.2386 14.8271 37.9049 14.9462 37.5474 14.9939C37.2852 15.0177 37.0231 15.1131 36.7847 15.1846C36.5226 15.2322 36.2842 15.2799 36.0459 15.3752C35.9029 15.4229 35.7599 15.4706 35.6169 15.5182C35.4977 15.5659 35.3786 15.6136 35.2594 15.6374C35.0687 15.6851 34.9019 15.7804 34.7112 15.8281C34.4729 15.8996 34.2584 16.1379 33.9486 16.0664Z" fill="#E74214"/>
<path d="M33.2803 38.7558C32.0409 38.9226 30.8254 39.0656 29.5861 39.2325C28.1799 39.4231 26.7738 39.6376 25.3914 39.8283C25.0339 39.876 24.6526 39.9236 24.2951 39.9951C24.0329 40.0428 23.7946 40.0666 23.5801 39.9236C23.5324 39.7091 23.5086 39.4946 23.4609 39.2801C24.8433 39.018 26.2494 38.8511 27.6318 38.6605C29.3954 38.3983 31.1591 38.1361 32.9228 37.8978C33.1849 37.874 33.4709 37.7786 33.6378 38.0885C33.6139 38.3745 33.3518 38.5175 33.2803 38.7558Z" fill="#E74214"/>
<path d="M33.6138 38.1124C33.2087 37.8503 32.8035 38.0886 32.4222 38.1363C29.5622 38.5176 26.726 38.9704 23.866 39.3756C23.723 39.3994 23.58 39.3518 23.4608 39.2803C23.4132 39.0419 23.3178 38.7798 23.3417 38.5414C23.6992 38.9943 24.152 38.6368 24.5333 38.6129C26.2493 38.4223 27.9653 38.1601 29.6813 37.8979C30.9922 37.7073 32.303 37.5404 33.6138 37.3498C33.7807 37.3259 33.9237 37.3736 34.0905 37.3974C33.9952 37.6596 33.8045 37.8979 33.6138 38.1124Z" fill="#E74214"/>
<path d="M27.6309 21.7388C28.0361 22.2393 28.6081 22.5014 29.1324 22.8351C31.4443 24.3604 33.7561 25.8381 36.0679 27.3396C37.2119 28.0784 38.3321 28.8173 39.4761 29.5323C39.5714 29.5799 39.6668 29.6038 39.7621 29.6514C39.6191 29.7468 39.7383 29.9851 39.5476 30.0804C39.3093 30.2234 39.1424 30.0328 38.9756 29.9374C36.5684 28.3883 34.1613 26.8153 31.7541 25.2423C30.3956 24.3604 29.0609 23.4786 27.7263 22.6206C27.5594 22.5253 27.3688 22.4299 27.2734 22.2393C27.3211 22.0486 27.4879 21.8818 27.6309 21.7388Z" fill="#E74214"/>
<path d="M51.6562 22.144C52.2521 21.1668 52.5619 20.0705 52.9909 19.0218C53.8251 17.0436 54.6116 15.0416 55.3981 13.0635C55.6841 13.1588 56.0178 13.1826 56.2561 13.3733C55.8033 13.8738 55.6603 14.4935 55.4219 15.0893C54.4686 17.425 53.5391 19.7606 52.6096 22.0725C52.4904 22.3585 52.4666 22.7636 52.0376 22.8113C51.9184 22.5968 51.7754 22.3823 51.6562 22.144Z" fill="#E74214"/>
<path d="M52.0371 22.8112C52.6091 22.12 52.7759 21.262 53.1096 20.4517C54.0391 18.2114 54.9209 15.9472 55.8266 13.683C55.8981 13.4924 56.0173 13.3494 56.2556 13.3732C56.3986 13.5162 56.6608 13.397 56.7799 13.5877C56.5416 13.5877 56.4463 13.7784 56.3748 13.969C55.1831 16.9482 53.9914 19.9274 52.7998 22.8827C52.7044 23.1449 52.5853 23.407 52.4899 23.6692C52.3469 23.3832 52.1801 23.0972 52.0371 22.8112Z" fill="#E74214"/>
<path d="M52.2036 12.2055C51.8461 12.1578 51.7031 12.3723 51.5839 12.6583C50.8451 14.5173 50.1063 16.3525 49.3674 18.2115C49.2721 18.426 49.1768 18.6405 49.0576 18.8311C48.8908 18.7596 48.8193 18.5451 48.6286 18.5213C48.6286 18.283 48.3903 18.1876 48.2949 17.997C48.4141 17.4488 48.6763 16.9721 48.8669 16.4478C49.3913 15.1131 49.9156 13.7785 50.4876 12.4676C50.5591 12.277 50.5591 11.991 50.8689 11.991C51.3694 11.9671 51.7746 12.0625 52.2036 12.2055Z" fill="#E74214"/>
<path d="M31.8036 42.2831C30.8026 42.6167 29.7301 42.6406 28.6814 42.8074C27.4898 42.9981 26.2743 43.1649 25.0826 43.3317C24.8919 43.3556 24.7013 43.3556 24.5106 43.3556C24.3438 43.0934 24.2723 42.7836 24.2246 42.4976C25.0111 42.5214 25.7499 42.3307 26.5126 42.2354C27.9188 42.0686 29.3011 41.8302 30.7073 41.6396C31.1363 41.5681 31.5891 41.4966 32.0181 41.5442C32.0181 41.8064 31.8989 42.0447 31.8036 42.2831Z" fill="#E74214"/>
<path d="M38.2378 57.8225C37.9756 57.7986 37.7611 57.6556 37.5704 57.5126C37.1653 53.6993 36.8078 49.8621 36.3788 46.0488C36.3311 45.7151 36.2834 45.3814 36.5218 45.0716C36.6886 45.0001 36.8316 45.1193 36.9508 45.2146C37.1653 45.3099 37.1891 45.5006 37.2129 45.7151C37.4274 48.313 37.7373 50.887 37.9756 53.4848C38.0948 54.6765 38.2139 55.8443 38.3569 57.0359C38.4046 57.2743 38.4523 57.5841 38.2378 57.8225Z" fill="#E74214"/>
<path d="M69.4591 39.6141C69.3399 39.8763 69.2446 40.1146 69.1254 40.3768C69.0539 40.4959 69.0301 40.6628 68.8394 40.6866C66.5991 41.0918 64.3587 41.5446 62.1184 41.9736C61.7847 42.0451 61.5702 42.2119 61.3557 42.4264C61.2366 42.1404 61.1651 41.8544 61.1412 41.5446C60.9982 41.1871 61.2127 41.0441 61.4987 40.9726C61.8801 40.8773 62.2614 40.8058 62.6427 40.7343C64.6447 40.3529 66.6467 39.9478 68.6487 39.5664C68.9586 39.5188 69.2207 39.3996 69.4591 39.6141Z" fill="#E74214"/>
<path d="M58.2098 24.6463C57.757 24.5271 58.0668 24.2173 58.1145 24.0505C58.7103 22.5251 59.3061 21.0236 59.9258 19.5221C60.4025 18.402 60.7123 17.2103 61.3796 16.1616C61.5941 16.3046 61.8086 16.4476 62.0231 16.5906C61.1175 18.8786 60.188 21.1905 59.2585 23.4785C59.1155 23.8121 59.044 24.1935 58.8056 24.5033C58.6388 24.6225 58.4243 24.6463 58.2098 24.6463Z" fill="#E74214"/>
<path d="M38.5713 14.684C38.9526 14.6364 39.3578 14.5172 39.7391 14.5887C39.8106 14.8509 40.0489 14.97 40.2396 15.113C42.2416 16.4477 44.2674 17.7109 46.2694 19.0455C46.4601 19.1647 46.6746 19.26 46.7938 19.4984C46.6508 19.7367 46.3648 19.7844 46.1503 19.9274C46.0073 20.0465 45.8881 19.9512 45.7689 19.8559C43.4094 18.3067 41.0499 16.8052 38.7143 15.2322C38.5951 15.1369 37.9754 15.0415 38.5713 14.684Z" fill="#E74214"/>
<path d="M60.7846 15.7327C60.2603 16.1617 60.1888 16.8528 59.9505 17.401C58.9971 19.6413 58.1391 21.9293 57.2096 24.1935C57.0428 24.5987 57.1381 24.7655 57.5671 24.7417C57.1858 24.8847 56.7806 24.837 56.3755 24.837C56.2086 24.6464 56.2801 24.4319 56.3755 24.2412C57.4718 21.5719 58.5205 18.8549 59.6168 16.1855C59.736 15.8995 59.7598 15.4705 60.2365 15.4229C60.4748 15.4229 60.6416 15.5658 60.7846 15.7327Z" fill="#E74214"/>
<path d="M39.3339 30.8431C37.5464 29.6752 35.7589 28.5312 33.9476 27.3634C31.7788 25.9572 29.5861 24.5511 27.4173 23.1211C27.2504 23.0019 27.0121 22.9542 26.9883 22.6921C27.0359 22.5729 27.0836 22.4299 27.2028 22.3584C28.1799 22.8589 29.0856 23.5262 29.9913 24.1221C32.9704 26.0526 35.9496 28.0069 38.9526 29.9374C39.1671 30.0804 39.3816 30.1996 39.5246 30.4141C39.5246 30.5809 39.4054 30.7001 39.3339 30.8431Z" fill="#E74214"/>
<path d="M35.974 15.3039C36.2123 15.1609 36.4507 15.0894 36.7367 15.0894C37.9522 15.852 39.1677 16.6624 40.3593 17.425C41.8608 18.4022 43.3623 19.4032 44.8877 20.3565C45.0068 20.428 45.126 20.5234 45.1975 20.6425C45.126 20.9047 44.84 20.9047 44.697 21.0715C44.5063 21.1907 44.3633 21.0477 44.2203 20.9524C41.5987 19.2602 39.0008 17.5442 36.3792 15.852C36.1647 15.7567 35.831 15.6614 35.974 15.3039Z" fill="#E74214"/>
<path d="M50.9168 11.9906C50.2256 13.3253 49.7728 14.7553 49.1769 16.1376C48.9148 16.7573 48.7956 17.4484 48.3189 17.9966C48.0329 17.7106 47.7469 17.4246 47.4609 17.1386C48.2236 15.5895 48.7718 13.9211 49.4629 12.3481C49.5821 12.0859 49.6298 11.7285 50.0826 11.8953C50.3448 11.8715 50.6546 11.8476 50.9168 11.9906Z" fill="#E74214"/>
<path d="M42.0988 45.2861C42.1703 46.6685 42.361 48.0508 42.504 49.457C42.647 50.6486 42.7185 51.8403 42.8615 53.032C42.9806 54.2713 43.1475 55.4868 43.2666 56.7023C43.362 57.608 43.4335 58.4898 43.505 59.3955C43.362 59.3955 43.1951 59.4193 43.076 59.324C42.6946 58.7281 42.79 58.0131 42.7185 57.3458C42.3133 53.604 41.9558 49.8383 41.5506 46.0965C41.5268 45.8343 41.5268 45.5483 41.2646 45.3815C41.0025 45.3815 40.7641 45.3576 40.502 45.3576C41.0263 45.2623 41.5506 45.31 42.0988 45.2861Z" fill="#E74214"/>
<path d="M50.0593 11.872C49.7257 11.8243 49.7019 12.0865 49.6065 12.301C49.0107 13.7787 48.4149 15.2563 47.819 16.7578C47.7475 16.9485 47.6999 17.1392 47.4615 17.1392C47.1755 16.9247 46.8895 16.7102 46.6035 16.4957C46.675 16.019 46.9134 15.59 47.104 15.161C47.5569 14.0408 47.962 12.873 48.5102 11.7767C48.5578 11.7528 48.6055 11.7528 48.6532 11.7767C49.1299 11.7767 49.6065 11.729 50.0593 11.872Z" fill="#E74214"/>
<path d="M41.2402 45.4054C41.5024 45.3577 41.6454 45.4292 41.6692 45.7629C41.8599 47.7887 42.0982 49.7908 42.2889 51.8166C42.4557 53.3896 42.5749 54.9864 42.7179 56.5594C42.8132 57.4889 42.9324 58.4184 43.0277 59.3479C42.8847 59.3241 42.7417 59.3241 42.5987 59.3002C42.5034 58.3469 42.3842 57.3936 42.2889 56.4641C42.1459 55.2248 42.0029 53.9616 41.8837 52.7222C41.7884 51.6736 41.6454 50.6011 41.5739 49.5524C41.4786 48.1463 41.2402 46.7877 41.2402 45.4054Z" fill="#E74214"/>
<path d="M38.5702 14.6841C38.3081 14.8747 38.4987 14.9462 38.6656 15.0416C40.1909 16.0187 41.7162 17.0197 43.2177 17.9969C44.1949 18.6404 45.1721 19.2601 46.1731 19.9036C46.0539 20.1181 45.8394 20.1896 45.6487 20.3326C45.3389 20.3803 45.1482 20.1896 44.9337 20.0466C42.5981 18.5212 40.2386 16.9959 37.9029 15.4706C37.7122 15.3514 37.3786 15.2561 37.4977 14.8986C37.8314 14.7794 38.1889 14.7079 38.5702 14.6841Z" fill="#E74214"/>
<path d="M39.2142 45.4052C39.4287 45.8818 39.3572 46.3823 39.4049 46.859C39.6671 48.9325 39.8577 51.006 40.0484 53.0557C40.2152 54.6287 40.3582 56.2255 40.4774 57.7985C40.5012 58.0845 40.7634 58.3705 40.4774 58.6565C40.2391 58.6804 40.0246 58.5612 39.8339 58.442C39.9531 57.3933 39.7386 56.3685 39.6432 55.3437C39.3334 52.1738 38.9997 49.0278 38.6899 45.8818C38.6661 45.715 38.6422 45.5243 38.7852 45.3813C38.9282 45.4052 39.0712 45.4052 39.2142 45.4052Z" fill="#E74214"/>
<path d="M69.4597 39.6138C68.268 39.8283 67.1002 40.0428 65.9085 40.2811C64.4785 40.5433 63.0723 40.8531 61.6423 41.1153C61.3802 41.163 61.1657 41.2345 61.1657 41.5682C61.0465 41.3298 60.975 41.0915 60.9512 40.8293C60.975 40.591 61.1657 40.5195 61.3563 40.4957C64.0257 39.9713 66.695 39.447 69.3643 38.9227C69.5073 38.8988 69.6503 38.8511 69.7457 38.9941C69.7218 39.2086 69.6265 39.4231 69.4597 39.6138Z" fill="#E74214"/>
<path d="M61.3797 42.4264C61.332 42.0689 61.5465 41.9259 61.8563 41.8544C64.0252 41.4254 66.194 40.9964 68.3867 40.5912C68.5535 40.5674 68.7442 40.5912 68.911 40.5674C69.0302 40.9487 68.6965 41.1155 68.5535 41.3777C68.4343 41.5207 68.3152 41.6876 68.0768 41.6876C66.8375 41.8067 65.622 42.1165 64.4065 42.331C63.6677 42.474 62.9527 42.6409 62.2138 42.7839C61.9517 42.8315 61.7133 42.9507 61.475 43.0699C61.3797 42.8792 61.4035 42.6409 61.3797 42.4264Z" fill="#E74214"/>
<path d="M66.1223 50.6007C64.9545 49.0992 63.7867 47.6215 62.6427 46.12C62.4997 45.9294 62.309 45.7387 62.2852 45.4765C62.5235 45.1429 62.8572 45.0952 63.2147 45.0952C63.9535 45.8579 64.5732 46.7397 65.2405 47.5739C65.6933 48.122 66.1223 48.694 66.5513 49.266C66.6467 49.409 66.8135 49.5282 66.7897 49.7189C66.5752 50.0764 66.4083 50.3862 66.1223 50.6007Z" fill="#E74214"/>
<path d="M33.9473 16.0667C34.1856 15.9475 34.4239 15.8045 34.6861 15.7568C34.8291 15.9475 35.0198 16.0667 35.2104 16.1858C37.9274 17.9495 40.6683 19.737 43.3853 21.5007C43.5759 21.6198 43.7904 21.739 43.9096 21.9535C43.7904 22.0965 43.6713 22.2395 43.5521 22.3825C42.1221 21.453 40.6921 20.5473 39.2621 19.6178C37.5699 18.5215 35.9016 17.4252 34.2094 16.3288C34.1141 16.2335 33.9949 16.1858 33.9473 16.0667Z" fill="#E74214"/>
<path d="M38.7863 45.3815C38.9532 46.9783 39.1438 48.5751 39.3107 50.172C39.4775 51.745 39.5967 53.3418 39.7397 54.9148C39.835 55.9158 39.9542 56.9168 40.0495 57.9178C40.0733 58.1085 40.1687 58.3706 39.835 58.4421C39.7635 58.4421 39.6682 58.4421 39.6205 58.3706C39.406 57.9893 39.406 57.5603 39.3583 57.1313C38.977 53.461 38.6195 49.7668 38.2143 46.0965C38.1905 45.8105 38.119 45.5245 38.3335 45.2861C38.4765 45.2861 38.6195 45.2861 38.7625 45.31C38.7863 45.3338 38.7863 45.3576 38.7863 45.3815Z" fill="#E74214"/>
<path d="M59.6627 46.0249C59.8533 46.0249 60.0202 46.0726 60.1393 46.2156C61.5932 48.0746 63.0708 49.9574 64.5247 51.8164C64.62 51.9356 64.7392 52.0547 64.7392 52.2454C64.62 52.4122 64.5247 52.6029 64.3102 52.6506C62.618 50.6009 60.9735 48.4797 59.3528 46.3586C59.2337 46.2156 59.1145 46.0964 58.9238 46.1202C59.1622 46.0249 59.4005 46.0249 59.6627 46.0249Z" fill="#E74214"/>
<path d="M63.2157 17.5678C63.0012 17.5678 62.9058 17.7347 62.8343 17.9015C62.0717 19.7843 61.309 21.6672 60.5463 23.5738C60.4987 23.693 60.3318 23.8598 60.5225 24.0028C60.2365 24.2173 59.879 24.2173 59.5453 24.3126C59.1878 24.1696 59.4262 23.9313 59.4977 23.7645C59.9505 22.5967 60.4272 21.4288 60.9038 20.261C61.2852 19.3076 61.6665 18.3543 62.0717 17.401C62.1432 17.2103 62.167 16.972 62.4292 16.9243C62.739 17.0911 63.0012 17.3057 63.2157 17.5678Z" fill="#E74214"/>
<path d="M43.9352 21.9531C43.6015 21.8816 43.3632 21.6194 43.0772 21.4526C40.384 19.7127 37.6908 17.9491 35.0215 16.1854C34.8785 16.0901 34.5448 16.0662 34.7117 15.7326C34.8785 15.6372 35.0453 15.5419 35.2598 15.5181C38.0245 17.4009 40.8607 19.1646 43.6492 21.0236C43.8875 21.1666 44.1735 21.2857 44.2212 21.6194C44.1973 21.7862 44.0543 21.8816 43.9352 21.9531Z" fill="#E74214"/>
<path d="M25.2969 45.3812C26.989 45.1429 28.6812 44.9046 30.3734 44.6662C30.6117 44.6424 30.8739 44.5471 31.0884 44.7616C31.0407 45.0714 31.0169 45.4051 30.9692 45.7149C30.8024 45.8817 30.5879 45.8817 30.3734 45.9055C29.0625 46.0962 27.7279 46.3107 26.417 46.4537C26.2025 46.4776 25.988 46.5014 25.7974 46.3584C25.559 46.0724 25.416 45.7387 25.2969 45.3812Z" fill="#E74214"/>
<path d="M46.7932 19.4746C45.3632 18.569 43.9571 17.6395 42.5271 16.7338C41.6214 16.1618 40.7396 15.566 39.8577 14.9701C39.7147 14.8748 39.4764 14.7795 39.7386 14.565C39.7862 14.565 39.8101 14.5411 39.8577 14.5411C40.0961 14.5173 40.3582 14.4458 40.5966 14.565C40.9064 15.0416 41.4307 15.2085 41.8836 15.4945C43.5042 16.567 45.1249 17.6156 46.7456 18.6643C46.9601 18.8073 47.1507 18.9503 47.2699 19.1886C47.1507 19.4031 46.9124 19.3555 46.7932 19.4746Z" fill="#E74214"/>
<path d="M37.499 14.8986C37.5705 15.1608 37.8088 15.2799 37.9995 15.3991C40.4782 17.0198 42.9807 18.6166 45.4593 20.2134C45.507 20.2611 45.5785 20.2849 45.6262 20.3326C45.5547 20.5233 45.3163 20.5233 45.1972 20.6663C44.0293 20.0704 42.9807 19.2601 41.8843 18.5689C40.3352 17.5918 38.786 16.5669 37.2368 15.5659C37.0462 15.4468 36.8555 15.3038 36.7363 15.0893C36.9747 14.9939 37.213 14.8748 37.499 14.8986Z" fill="#E74214"/>
<path d="M26.6563 23.2163C27.7526 24.0743 28.9681 24.7416 30.1121 25.5281C31.5421 26.5053 33.0198 27.4348 34.4975 28.3881C36.0466 29.3891 37.5958 30.3901 39.145 31.415C39.0973 31.5103 39.0496 31.6295 39.002 31.7248C38.7636 31.8678 38.5968 31.6771 38.43 31.558C35.9513 29.9135 33.4726 28.2928 30.9701 26.696C29.5878 25.8141 28.2293 24.9085 26.847 24.0028C26.6563 23.8836 26.4895 23.7883 26.418 23.55C26.4656 23.407 26.5371 23.2878 26.6563 23.2163Z" fill="#E74214"/>
<path d="M60.2354 15.4226C59.6634 15.9708 59.5442 16.7335 59.2582 17.4008C58.3049 19.6888 57.3992 22.0006 56.4459 24.3125C56.3744 24.4793 56.3267 24.6461 56.3505 24.8368C56.136 24.8368 55.9215 24.8368 55.707 24.8368C56.708 22.3581 57.6852 19.8795 58.6862 17.4008C58.9484 16.7811 59.2105 16.1615 59.4489 15.518C59.5204 15.3511 59.6157 15.2081 59.7587 15.1128C59.9255 15.2081 60.0685 15.3035 60.2354 15.4226Z" fill="#E74214"/>
<path d="M71.0555 32.8693C71.0555 33.0123 71.0555 33.1553 71.0555 33.2983C67.5282 33.9894 64.0009 34.6806 60.4735 35.3718C59.9969 35.4671 59.544 35.5624 59.0674 35.6578C58.8767 35.7054 58.6622 35.7293 58.6384 35.9676C58.5192 35.8008 58.3047 35.6816 58.3047 35.4433C58.4239 35.1811 58.686 35.1334 58.9244 35.0858C62.7854 34.3708 66.6464 33.5366 70.5074 32.8216C70.6742 32.7739 70.8649 32.7263 71.0555 32.8693Z" fill="#E74214"/>
<path d="M71.0571 32.8689C67.5298 33.5601 64.0025 34.2513 60.4751 34.9663C59.7363 35.1093 58.9975 35.1331 58.3063 35.4429C58.1871 35.3714 58.1395 35.2523 58.0918 35.1331C58.4493 34.7756 58.9498 34.8471 59.3788 34.7518C63.2636 33.9653 67.1723 33.2026 71.0571 32.4399C71.081 32.4638 71.081 32.5114 71.081 32.5353C71.0571 32.6544 71.0571 32.7498 71.0571 32.8689Z" fill="#E74214"/>
<path d="M26.441 23.5503C28.9674 25.1948 31.4937 26.8631 34.02 28.5076C35.5692 29.5086 37.1184 30.5335 38.6675 31.5345C38.7629 31.606 38.8582 31.7013 39.0012 31.7013C39.025 31.8443 38.9297 31.9158 38.882 32.0111C38.4054 31.7251 37.9287 31.463 37.4759 31.1531C34.5682 29.2703 31.6844 27.3636 28.7767 25.4808C28.1094 25.0518 27.442 24.6228 26.7747 24.17C26.6079 24.0508 26.3695 23.9793 26.3457 23.7171C26.3695 23.6695 26.3934 23.6218 26.441 23.5503Z" fill="#E74214"/>
<path d="M62.4531 16.9246C61.476 19.3079 60.4988 21.6912 59.5216 24.0746C59.474 24.1699 59.474 24.2414 59.5693 24.3129C59.331 24.4559 59.0688 24.4797 58.8066 24.5274C58.8543 23.8124 59.2356 23.2166 59.474 22.5731C60.1651 20.7617 60.904 18.9742 61.619 17.1867C61.7143 16.9722 61.762 16.7339 62.0003 16.6147C62.2148 16.6624 62.334 16.7816 62.4531 16.9246Z" fill="#E74214"/>
<path d="M66.7656 49.7426C65.6216 48.2888 64.4538 46.8349 63.3098 45.3811C63.2621 45.3334 63.2621 45.2381 63.2383 45.1904C63.4528 44.9044 63.7388 44.8329 64.0724 44.8091C64.6921 45.3572 65.1211 46.0723 65.6216 46.6919C66.2174 47.4308 66.8133 48.1458 67.3376 48.9323C67.1946 49.2421 67.0278 49.5281 66.7656 49.7426Z" fill="#E74214"/>
<path d="M38.3568 45.2861C38.4283 46.6446 38.619 48.0031 38.762 49.3377C38.8811 50.5294 38.9765 51.7211 39.1195 52.9366C39.2386 54.1997 39.4055 55.4629 39.5246 56.7261C39.5723 57.2742 39.7153 57.8224 39.6438 58.3706C39.4055 58.3467 39.191 58.2752 39.0003 58.1322C39.1671 57.5841 39.0003 57.0359 38.9288 56.4877C38.619 53.5324 38.333 50.5771 38.0231 47.6217C37.9516 46.8591 37.7371 46.0726 37.8801 45.2861C37.9755 45.2146 38.047 45.2146 38.1423 45.2622C38.2138 45.2861 38.2853 45.2861 38.3568 45.2861Z" fill="#E74214"/>
<path d="M36.5212 45.0476C36.5212 46.5252 36.7834 48.0029 36.9264 49.4806C37.0455 50.6961 37.1409 51.9116 37.26 53.1271C37.3792 54.3664 37.546 55.6057 37.6652 56.8689C37.689 57.0834 37.7844 57.3217 37.546 57.5124H37.4984L37.4507 57.4886C37.3315 57.3932 37.2362 57.2741 37.117 57.1787C37.403 56.5591 37.0932 55.9394 37.0694 55.3197C37.0455 54.4379 36.9025 53.5561 36.8072 52.6742C36.6642 51.3872 36.5212 50.1002 36.402 48.8371C36.2829 47.5501 36.1637 46.2631 36.0684 44.9761C36.2352 44.9999 36.3782 45.0237 36.5212 45.0476Z" fill="#E74214"/>
<path d="M61.5004 43.0695C61.5242 42.855 61.6434 42.7597 61.8817 42.712C63.8122 42.3307 65.7189 41.9494 67.6256 41.568C67.8162 41.5204 68.0069 41.4727 68.1737 41.6634C68.2214 41.8779 68.1022 42.0209 67.9831 42.1639C67.7924 42.3545 67.6256 42.5929 67.2919 42.569C66.6722 42.5452 66.1002 42.7359 65.5044 42.855C64.4319 43.0457 63.3832 43.284 62.3107 43.4747C61.9056 43.5462 61.7626 43.7607 61.7387 44.1659C61.7387 44.6187 61.8579 45.0954 61.5957 45.5244C61.5481 45.5482 61.5242 45.5959 61.4766 45.6197C61.5957 44.7617 61.5242 43.9037 61.5004 43.0695Z" fill="#E74214"/>
<path d="M25.7734 46.3583C27.2273 46.1677 28.7049 45.977 30.1588 45.7625C30.4209 45.7148 30.6831 45.7148 30.9453 45.7148C30.9453 46.3583 30.9453 47.0018 30.9453 47.6453C30.7784 47.6453 30.7546 47.5262 30.7308 47.407C30.6593 46.8112 30.6354 46.7873 30.0396 46.8827C29.0148 47.0257 27.9899 47.1687 26.9651 47.3117C26.7268 47.3355 26.4646 47.407 26.2501 47.2163C26.0118 46.9542 25.8926 46.6682 25.7734 46.3583Z" fill="#E74214"/>
<path d="M67.3394 48.9326C66.7674 48.5036 66.4337 47.884 65.9809 47.3358C65.3374 46.5255 64.6462 45.739 64.0742 44.881C64.2649 44.5473 64.5747 44.4281 64.9322 44.4043C65.9571 45.596 66.9104 46.8353 67.8637 48.0985C67.7446 48.4083 67.5539 48.6705 67.3394 48.9326Z" fill="#E74214"/>
<path d="M37.9281 45.3099C38.0711 46.6684 38.2141 48.0508 38.3571 49.4093C38.5239 50.9585 38.6908 52.4838 38.8576 54.0329C38.9768 55.2484 39.0959 56.4639 39.2151 57.6794C39.2389 57.8463 39.3104 58.0846 39.0006 58.1323C38.9053 58.1323 38.8338 58.1084 38.7623 58.0369C38.5239 55.8443 38.3094 53.6516 38.0949 51.4828C37.9043 49.6238 37.7136 47.7409 37.4991 45.8819C37.4753 45.6674 37.4753 45.4529 37.6659 45.3099C37.7374 45.2384 37.8328 45.2146 37.9281 45.3099Z" fill="#E74214"/>
<path d="M38.2382 57.8225C38.1905 56.4164 37.976 55.0579 37.833 53.6755C37.7377 52.8652 37.6662 52.0549 37.5947 51.2445C37.4517 49.9337 37.3087 48.6229 37.1895 47.312C37.118 46.6209 37.118 45.9059 36.9512 45.2147C37.0942 45.167 37.2372 45.1194 37.3802 45.2147C37.5708 45.5722 37.547 45.9774 37.5708 46.3587C37.69 47.9317 37.8807 49.5047 38.0475 51.0539C38.2382 52.9605 38.405 54.8672 38.6672 56.75C38.7148 57.036 38.6672 57.322 38.691 57.608C38.691 57.751 38.691 57.9417 38.4527 57.9417C38.3573 57.9179 38.2858 57.894 38.2382 57.8225Z" fill="#E74214"/>
<path d="M67.8632 48.0745C67.1244 47.5501 66.7192 46.7398 66.1472 46.0725C65.7182 45.5481 65.2415 45.0476 64.9317 44.428C65.1462 44.0943 65.4084 43.8798 65.8135 43.856C66.5285 44.8331 67.2912 45.7626 68.0539 46.716C68.1969 46.9066 68.3875 47.0496 68.2922 47.3118C68.1969 47.6216 68.0539 47.86 67.8632 48.0745Z" fill="#E74214"/>
<path d="M42.4088 35.9672C42.3611 35.7765 42.3611 35.6097 42.4088 35.4429C42.671 35.2999 42.814 35.4905 42.957 35.6335C45.102 37.3972 48.1765 37.0397 49.7971 34.3465C50.1308 33.7984 50.2738 33.131 50.3215 32.4637C50.3453 32.273 50.2261 31.987 50.5598 31.9155C50.7505 32.0109 50.8935 32.1539 51.0126 32.3445C50.8458 32.9642 50.7743 33.6315 50.5121 34.2512C49.9401 35.6097 48.9868 36.4915 47.6283 37.0159C45.9838 37.6594 44.4108 37.421 42.9331 36.4915C42.7425 36.3247 42.5756 36.1579 42.4088 35.9672Z" fill="#E74214"/>
<path d="M39.525 30.4142C39.1675 30.1997 38.7861 30.009 38.4286 29.7707C35.521 27.8879 32.6371 25.9812 29.7295 24.0983C28.9668 23.5978 28.2041 23.0974 27.4653 22.6207C27.37 22.5492 27.2508 22.5015 27.2031 22.3585C27.227 22.3347 27.2508 22.287 27.2746 22.2632C28.2518 22.7399 29.1098 23.3833 30.0155 23.9792C33.09 25.9812 36.1883 27.9832 39.2628 29.9852C39.3581 30.0328 39.4535 30.0567 39.5488 30.1043C39.525 30.1997 39.525 30.295 39.525 30.4142Z" fill="#E74214"/>
<path d="M50.583 31.8918C50.3924 32.4877 50.4162 33.1312 50.2017 33.7508C49.8442 34.9187 49.0339 35.7052 48.0567 36.2772C46.3169 37.302 43.9812 36.8492 42.7419 35.586C42.6465 35.4907 42.5512 35.4192 42.4082 35.4192C42.4082 35.2523 42.432 35.0617 42.432 34.8948C42.718 34.8472 42.8372 35.0855 43.004 35.2285C43.5999 35.7528 44.2434 36.1818 45.0775 36.2772C47.723 36.5632 49.4152 35.2523 49.9395 32.8928C49.9872 32.6307 49.9872 32.3685 50.011 32.1063C50.0349 31.9395 49.9872 31.7012 50.2732 31.7012C50.4162 31.7012 50.5115 31.7727 50.583 31.8918Z" fill="#E74214"/>
<path d="M51.2265 32.6304C51.4887 32.678 51.5602 32.8925 51.6555 33.0832C51.2027 35.109 50.1302 36.682 48.1758 37.54C46.436 38.3027 44.7438 38.1835 43.0755 37.3255C42.8372 37.2064 42.6703 37.0395 42.5273 36.825C42.5273 36.396 42.575 36.3722 42.9563 36.5867C43.5998 36.9442 44.2433 37.254 44.9822 37.3732C47.7468 37.7545 50.3685 36.1339 50.9643 33.2262C51.012 33.0117 50.9882 32.7734 51.2265 32.6304Z" fill="#E74214"/>
<path d="M48.6767 11.7764C48.6291 11.7764 48.5814 11.8003 48.5576 11.8003C48.2477 12.0148 47.9141 11.9194 47.5804 11.9433C46.7939 11.9194 46.7939 11.9194 46.5079 12.6583C46.1981 13.4448 45.8882 14.2551 45.5546 15.0416C45.4592 15.2799 45.3877 15.5659 45.0302 15.5421C44.7681 15.4706 44.5059 15.3991 44.2676 15.2323C44.7204 14.0883 45.1494 12.9204 45.6737 11.8003C46.6509 11.6811 47.6519 11.6096 48.6767 11.7764Z" fill="#E74214"/>
<path d="M48.9627 31.0337C49.0819 31.0337 49.201 31.0337 49.2725 31.1529C49.8684 31.9394 49.6777 32.8212 49.344 33.6077C48.1524 36.42 45.0302 36.5392 43.2427 35.0377C42.9567 34.7994 42.7422 34.5372 42.623 34.1797C42.6707 34.0367 42.6707 33.846 42.7899 33.7269C43.0759 33.6792 43.1474 33.9175 43.2427 34.0844C44.053 35.1807 45.4592 35.6574 46.7462 35.2522C47.9855 34.8709 48.9389 33.5839 48.9627 32.273C48.9627 32.0347 48.8912 31.8202 48.8435 31.5819C48.8674 31.3912 48.7959 31.2005 48.9627 31.0337Z" fill="#E74214"/>
<path d="M35.973 15.3037C36.0445 15.7327 36.4496 15.8042 36.7356 15.9949C39.0475 17.5202 41.3831 19.0217 43.695 20.5232C44.0286 20.7377 44.3623 20.9284 44.696 21.119C44.6006 21.2144 44.5291 21.3335 44.4338 21.4289C44.267 21.4527 44.124 21.3574 44.0048 21.262C41.3116 19.4745 38.5946 17.7824 35.9253 15.971C35.7346 15.8519 35.4248 15.7804 35.5678 15.4229C35.687 15.3514 35.83 15.3037 35.973 15.3037Z" fill="#E74214"/>
<path d="M68.2912 47.3597C68.0528 46.7877 67.5523 46.3826 67.1948 45.8821C66.7897 45.3101 66.313 44.7857 65.884 44.2137C65.8363 44.1422 65.8363 44.0231 65.8125 43.9039C65.9078 43.5941 66.1462 43.4511 66.456 43.4272C67.0757 43.9992 67.5285 44.7381 68.0767 45.3816C68.2435 45.5722 68.4103 45.8106 68.5772 46.0012C68.7202 46.1681 68.8393 46.3349 68.7202 46.5732C68.601 46.8592 68.458 47.1214 68.2912 47.3597Z" fill="#E74214"/>
<path d="M26.2266 47.2168C27.4421 47.05 28.6337 46.907 29.8492 46.7401C29.8731 46.7401 29.9207 46.7163 29.9446 46.7163C30.8502 46.5256 30.8502 46.5256 30.8502 47.4313C30.7549 47.5266 30.6357 47.5505 30.5166 47.5743C29.3964 47.7411 28.2524 47.9318 27.1322 48.051C26.9654 48.0748 26.8224 48.0748 26.6794 47.9795C26.4649 47.7411 26.3219 47.479 26.2266 47.2168Z" fill="#E74214"/>
<path d="M42.957 38.1122C42.814 37.9692 42.7425 37.8023 42.7425 37.6117C42.7187 37.3733 42.8855 37.421 43.0285 37.3972C43.1477 37.421 43.243 37.4687 43.3384 37.5163C44.7684 38.2075 46.246 38.3505 47.7475 37.7785C47.7952 37.7547 47.8429 37.7308 47.8905 37.7308C48.3434 37.5878 48.7724 37.3733 49.1537 37.0873C50.2262 36.2293 51.108 35.2283 51.4655 33.8698C51.5132 33.6792 51.5132 33.417 51.823 33.417C51.8945 33.56 51.966 33.703 52.0375 33.846C51.537 36.2293 49.1537 38.3267 46.7704 38.6127C45.5787 38.7557 44.4585 38.6127 43.3622 38.1837C43.243 38.1122 43.1 38.0407 42.957 38.1122Z" fill="#E74214"/>
<path d="M68.6958 46.5729C68.529 45.9533 68.0046 45.5719 67.6471 45.0714C67.2658 44.5232 66.8368 43.9989 66.4316 43.4746C66.527 43.0694 66.8606 42.8787 67.1943 42.7119C67.7901 43.5699 68.4336 44.3802 69.1248 45.1906C69.1725 45.2621 69.2201 45.3336 69.244 45.4289C69.0771 45.8102 68.958 46.2154 68.6958 46.5729Z" fill="#E74214"/>
<path d="M48.9631 31.0336C48.9631 31.6295 49.2014 32.1776 49.1061 32.7973C48.9154 33.9413 47.6761 35.2521 46.5559 35.419C45.0306 35.6811 43.8389 35.1806 43.0286 33.8698C42.9809 33.7983 42.8856 33.7506 42.8379 33.703C42.8856 33.6315 42.9094 33.56 42.9571 33.4885C43.2907 33.3216 43.4099 33.6315 43.5291 33.8221C44.0296 34.4895 44.6969 34.8946 45.5311 34.99C47.1994 35.2045 48.5817 33.7506 48.6056 32.4636C48.6056 32.0823 48.6294 31.6771 48.5102 31.2958C48.4626 31.1528 48.4149 31.0098 48.5341 30.8906C48.7009 30.9145 48.8439 30.9145 48.9631 31.0336Z" fill="#E74214"/>
<path d="M45.6509 11.8001C45.5556 12.5866 45.1504 13.2539 44.8644 13.9689C44.6976 14.3979 44.6499 14.8984 44.2447 15.2083C43.9111 15.1368 43.5774 15.0653 43.2676 14.8984C43.7442 14.2311 43.9349 13.4208 44.2686 12.6819C44.3877 12.4198 44.4354 12.1099 44.6976 11.8954C44.9836 11.8001 45.3172 11.7763 45.6509 11.8001Z" fill="#E74214"/>
<path d="M69.2455 45.4049C68.4352 44.5946 67.6487 43.7843 67.1959 42.7356C67.1482 42.5449 67.2435 42.4973 67.4104 42.4973C67.6487 42.4258 67.744 42.1636 67.9347 42.0444C68.5067 42.8071 69.1502 43.5459 69.6745 44.3324C69.603 44.7138 69.46 45.0713 69.2455 45.4049Z" fill="#E74214"/>
<path d="M44.6724 11.8958C44.3387 12.8015 43.9812 13.6833 43.6476 14.589C43.5761 14.7796 43.4569 14.8988 43.2662 14.8988C42.9326 14.8749 42.6227 14.8035 42.2891 14.6843C42.6466 14.017 42.8611 13.302 43.1709 12.6108C43.2901 12.3486 43.3854 12.0626 43.7191 12.015C44.0289 11.9435 44.3387 11.872 44.6724 11.8958Z" fill="#E74214"/>
<path d="M42.957 38.1124C43.0285 37.8025 43.1954 37.9217 43.3622 37.9932C45.0544 38.732 46.7942 38.732 48.4625 37.9694C49.9164 37.302 51.0127 36.2057 51.6324 34.6804C51.7515 34.3944 51.7754 34.0607 52.0375 33.8462C52.1567 34.0369 52.2282 34.2514 52.252 34.4897C52.0852 34.585 52.0375 34.7757 51.966 34.9187C51.0127 37.016 49.392 38.303 47.1279 38.8035C46.9134 38.8512 46.7227 38.9465 46.5082 38.9704C45.6979 38.9227 44.8637 38.9704 44.0772 38.732C43.6959 38.6129 43.3145 38.5175 43.0047 38.2554C43.0047 38.1839 42.9809 38.1362 42.957 38.1124Z" fill="#E74214"/>
<path d="M38.4534 57.9179C38.6679 57.6319 38.5725 57.2983 38.5487 56.9884C38.358 54.8196 38.1435 52.6269 37.9052 50.4581C37.7145 48.6944 37.4762 46.9546 37.3809 45.1909C37.4524 45.1909 37.5239 45.1909 37.5954 45.2148C37.643 45.2386 37.6669 45.2624 37.6907 45.3101C37.5239 45.5723 37.643 45.8106 37.6669 46.0728C37.8099 47.2883 37.8814 48.5038 38.0244 49.7193C38.1435 50.9586 38.3104 52.2218 38.4295 53.4611C38.501 54.1999 38.5964 54.9388 38.644 55.6776C38.6917 56.3449 38.7394 57.0122 38.8585 57.6796C38.8824 57.8226 38.8824 57.9656 38.7394 58.0609C38.644 58.0371 38.5249 58.0132 38.4534 57.9179Z" fill="#E74214"/>
<path d="M43.6962 12.0146C43.1957 12.4913 43.1481 13.2063 42.8382 13.7783C42.6714 14.0881 42.7429 14.541 42.2901 14.684C42.0517 14.684 41.8134 14.684 41.5751 14.6601C41.5036 14.5886 41.3606 14.6363 41.2891 14.5171C41.4082 13.7306 41.7896 13.0395 42.0994 12.3245C42.6237 12.1576 43.1719 12.0623 43.6962 12.0146Z" fill="#E74214"/>
<path d="M43.1953 33.0835C43.2668 32.9167 43.3621 32.7737 43.5051 32.6545C43.7911 32.6784 43.7673 32.9405 43.8626 33.1312C44.2678 33.9177 44.9351 34.3944 45.817 34.4182C46.6511 34.4182 47.3185 34.0369 47.7236 33.2742C48.0573 32.6545 48.0335 32.011 47.819 31.3675C47.7475 31.2007 47.5806 31.0339 47.676 30.8194C47.7475 30.7955 47.8428 30.7955 47.9143 30.8432C47.9858 30.8432 48.0335 30.8432 48.105 30.867C48.6055 31.2007 48.6055 31.7489 48.6293 32.2494C48.6531 33.584 47.5806 34.8234 46.2698 35.014C44.9113 35.2047 43.6243 34.3944 43.1953 33.0835Z" fill="#E74214"/>
<path d="M31.2542 49.5521C31.3257 49.8143 31.3972 50.0526 31.4687 50.3148C31.3734 50.4578 31.2066 50.5054 31.0636 50.5293C30.3724 50.6008 29.6812 50.7199 28.9901 50.8153C28.8471 50.8391 28.7041 50.8153 28.5849 50.7438C28.3704 50.4578 28.1559 50.1718 27.9414 49.8858C28.9424 49.4091 29.9911 49.4091 31.0636 49.3853C31.1589 49.3853 31.2066 49.4806 31.2542 49.5521Z" fill="#E74214"/>
<path d="M47.6747 30.8429C48.7472 32.3921 47.8177 34.4418 45.9587 34.5609C45.0769 34.6086 44.1712 34.1558 43.6946 33.0833C43.6231 32.9403 43.5754 32.7973 43.5039 32.6543C43.5754 32.5113 43.6707 32.3921 43.8137 32.2968C44.0044 32.3683 44.0282 32.5589 44.0997 32.7258C44.5049 33.7983 45.5536 34.2988 46.4831 33.8936C47.5317 33.4408 47.8892 32.4874 47.4126 31.3911C47.1981 30.8906 47.2219 30.7953 47.6747 30.8429Z" fill="#E74214"/>
<path d="M43.29 37.5877C43.1947 37.5877 43.1232 37.5639 43.0755 37.4924C42.9087 37.3732 42.6942 37.3255 42.5512 37.1825C42.5512 37.0872 42.5273 36.968 42.5273 36.8727C43.576 37.5877 44.6962 37.9452 45.9593 37.9452C48.152 37.9214 50.3208 36.4199 51.1312 34.3702C51.298 33.965 51.2742 33.4407 51.6555 33.1309C51.7747 33.2024 51.8223 33.3215 51.8462 33.4645C51.6793 33.5599 51.6793 33.7029 51.6317 33.8697C51.298 35.252 50.4162 36.253 49.3913 37.1587C49.3437 37.2064 49.2483 37.2064 49.2007 37.2302C48.7955 37.4685 48.3665 37.683 47.9137 37.8737C46.3168 38.398 44.7915 38.2789 43.29 37.5877Z" fill="#E74214"/>
<path d="M35.5692 15.4229C35.5692 15.6374 35.736 15.7089 35.9029 15.8042C37.7857 17.0197 39.6924 18.259 41.5752 19.4745C42.5285 20.0942 43.4819 20.7615 44.459 21.405C44.3875 21.4765 44.316 21.548 44.2445 21.6195C42.743 20.4994 41.1462 19.5699 39.597 18.545C38.31 17.687 37.023 16.8529 35.736 16.0187C35.5692 15.8995 35.2832 15.8519 35.2832 15.542C35.3547 15.4944 35.45 15.4705 35.5692 15.4229Z" fill="#E74214"/>
<path d="M26.6543 47.9554C28.0605 47.7886 29.4428 47.5026 30.849 47.4072C30.8728 47.4787 30.9205 47.5502 30.9443 47.6217C30.9443 47.7647 30.9443 47.9077 30.9681 48.0507C30.8251 48.2176 30.6345 48.2414 30.4438 48.2891C29.4905 48.4321 28.5371 48.5512 27.5838 48.6942C27.3931 48.7181 27.2263 48.7181 27.0833 48.5989C26.8926 48.4321 26.7496 48.2176 26.6543 47.9554Z" fill="#E74214"/>
<path d="M44.1254 32.011C44.2922 31.8203 44.4829 31.6535 44.7451 31.5582C45.0549 31.6058 44.8881 31.7965 44.8404 31.9395C44.6974 32.5115 44.9834 33.0358 45.5554 33.2503C45.9844 33.4171 46.5564 33.1311 46.7709 32.6545C46.9854 32.1778 46.8424 31.6773 46.3657 31.3675C46.2227 31.2721 45.9367 31.2721 46.0797 30.9861C46.2942 30.9146 46.4849 30.8431 46.7232 30.867C47.4382 31.2721 47.7481 31.9633 47.5336 32.6783C47.2952 33.4886 46.4849 34.0606 45.6746 33.9891C45.5077 33.9653 45.3171 33.9176 45.1502 33.87C44.7689 33.6793 44.5067 33.3933 44.2684 33.0596C44.1731 32.9405 44.1254 32.7737 44.1016 32.6307C44.1016 32.4638 44.1016 32.297 44.1016 32.1063C44.1254 32.0586 44.1254 32.0348 44.1254 32.011Z" fill="#E74214"/>
<path d="M69.6988 44.3326C69.0077 43.6653 68.3403 42.9503 67.959 42.0446C68.0305 41.9254 68.102 41.7824 68.1973 41.6633C68.2927 41.5441 68.4118 41.4488 68.5072 41.3296C68.96 41.4726 69.103 41.9254 69.389 42.2353C69.6512 42.5213 69.8656 42.8549 70.1278 43.1409C69.9371 43.5223 69.9372 43.9751 69.6988 44.3326Z" fill="#E74214"/>
<path d="M43.1958 33.0836C43.5056 33.2266 43.5294 33.5841 43.7201 33.8463C44.4113 34.6804 45.2693 35.0618 46.2941 34.8711C47.4143 34.6804 48.2008 33.7748 48.4153 32.7261C48.5583 32.0349 48.4153 31.4391 48.0816 30.8433C48.2246 30.8671 48.3676 30.9148 48.5106 30.9386C48.8204 31.8919 48.8919 32.8214 48.3676 33.7033C47.2951 35.5146 44.7688 35.6814 43.5294 34.0846C43.3626 33.8701 43.2911 33.5364 42.9336 33.5126C42.9813 33.3458 43.0766 33.2028 43.1958 33.0836Z" fill="#E74214"/>
<path d="M46.0804 30.9624C46.0804 31.1292 46.2234 31.1292 46.3425 31.1769C46.8669 31.4152 47.1529 31.9872 47.0099 32.4639C46.8669 32.9644 46.1757 33.5126 45.7705 33.4411C45.2462 33.3696 44.6504 32.7499 44.6027 32.2494C44.5789 31.9872 44.9364 31.8204 44.7457 31.5344C45.1509 31.2484 45.5799 31.0577 46.0804 30.9624Z" fill="#E74214"/>
<path d="M28.5859 50.7439C29.5393 50.6009 30.5164 50.4579 31.4698 50.3149C31.5651 50.6009 31.6843 50.8869 31.7796 51.1729C31.7081 51.2683 31.6128 51.3636 31.4698 51.3874C30.7548 51.4828 30.0636 51.7688 29.3248 51.6019C29.0388 51.3636 28.8481 51.0299 28.5859 50.7439Z" fill="#E74214"/>
<path d="M31.2539 49.5523C31.1109 49.4569 30.9679 49.4331 30.8011 49.4569C29.8478 49.5999 28.8944 49.7429 27.9411 49.8859C27.7504 49.6953 27.5836 49.5046 27.4883 49.2424C27.5598 49.0756 27.7028 49.0041 27.8696 48.9803C28.8706 48.8134 29.8716 48.6704 30.8964 48.5513C30.9441 48.5513 30.9918 48.5751 31.0394 48.5989C31.1109 48.9326 31.1824 49.2424 31.2539 49.5523Z" fill="#E74214"/>
<path d="M42.6715 34.1558C43.1243 34.6563 43.5772 35.2045 44.2445 35.4905C46.9377 36.6583 49.5355 34.847 49.5355 32.0823C49.5355 31.7487 49.2733 31.4865 49.321 31.1528C49.4402 31.2958 49.6785 31.1767 49.7738 31.3673C50.465 34.2273 47.8433 36.8252 44.9595 36.134C44.6973 36.0625 44.4352 35.991 44.1968 35.8957C44.1492 35.8718 44.1015 35.848 44.0538 35.8242C43.5772 35.4667 43.0528 35.1568 42.6715 34.6563C42.6238 34.5848 42.6 34.5133 42.5762 34.4657C42.5762 34.3703 42.6238 34.2512 42.6715 34.1558Z" fill="#E74214"/>
<path d="M42.5524 34.4658C42.5762 34.4896 42.6239 34.5373 42.6477 34.5611C42.9814 35.1093 43.5295 35.4191 44.03 35.729C46.5325 36.9445 49.0589 35.3953 49.6547 33.3695C49.8454 32.726 49.7024 32.0825 49.8215 31.439C50.0122 31.439 50.1552 31.5105 50.2744 31.6535C50.1075 31.7488 50.1552 31.9395 50.1314 32.0825C50.0599 33.9415 49.2495 35.3238 47.5335 36.1341C46.9854 36.3963 46.4134 36.3486 45.8414 36.3963C44.8404 36.4916 44.03 36.158 43.2912 35.6098C42.9814 35.3953 42.743 35.1093 42.457 34.871C42.4809 34.7518 42.5047 34.6088 42.5524 34.4658Z" fill="#E74214"/>
<path d="M44.2438 32.5355C44.22 32.7024 44.2677 32.8215 44.363 32.9645C44.506 33.322 44.7682 33.5604 45.1018 33.7034C45.7692 33.8702 46.3888 33.894 46.9132 33.3459C47.6043 32.6309 47.6282 31.8205 46.937 31.1055C46.8417 31.0102 46.7702 30.9149 46.6987 30.8195C47.1038 30.7242 47.509 30.6527 47.9142 30.7957C47.8427 30.7957 47.7473 30.8195 47.6758 30.8195C47.2468 30.7957 47.3422 30.9625 47.4852 31.2247C48.081 32.2972 47.7473 33.3697 46.6748 33.9179C45.5547 34.466 44.2677 33.894 43.9102 32.6785C43.8625 32.5355 43.8387 32.4164 43.791 32.2734C43.8625 32.1304 43.9578 32.035 44.1247 31.9635L44.1485 31.9874C44.2677 32.178 44.1247 32.3925 44.2438 32.5355Z" fill="#E74214"/>
<path d="M31.0407 48.599C30.0397 48.9326 28.9672 48.9326 27.9424 49.1233C27.7755 49.1471 27.6325 49.1709 27.4895 49.2424C27.2989 49.0518 27.1559 48.8373 27.0605 48.599C28.3475 48.4083 29.6584 48.2414 30.9454 48.0508C31.0407 48.2414 31.0645 48.4083 31.0407 48.599Z" fill="#E74214"/>
<path d="M70.1028 43.1411C69.5308 42.9743 69.4354 42.3546 69.0541 42.021C68.8396 41.8303 68.6728 41.5681 68.5059 41.3298C68.6489 41.0915 68.7919 40.8293 68.9588 40.591C69.0303 40.5195 69.1018 40.448 69.1494 40.3765C69.4593 41.0438 69.9836 41.5205 70.4364 42.0925C70.3649 42.45 70.2696 42.8075 70.1028 43.1411Z" fill="#E74214"/>
<path d="M51.2279 32.6306C51.0372 33.5839 50.8227 34.5373 50.2031 35.3476C49.2736 36.6108 48.0342 37.3734 46.5089 37.5403C45.2457 37.6833 44.0064 37.4926 42.9101 36.7299C42.7432 36.6108 42.5287 36.4201 42.5287 36.8491C42.3857 36.6346 42.4334 36.4201 42.4334 36.1818C42.6002 36.0626 42.6956 36.2056 42.7909 36.2771C43.9587 37.1113 45.2696 37.4688 46.6757 37.2304C48.4632 36.8968 49.7741 35.9196 50.5129 34.2036C50.7036 33.7508 50.8227 33.2979 50.8942 32.8213C50.9181 32.6783 50.8227 32.4399 51.1326 32.4399C51.1564 32.5114 51.1802 32.5591 51.2279 32.6306Z" fill="#E74214"/>
<path d="M29.3477 51.6018C30.158 51.4588 30.9683 51.3159 31.8025 51.1729C31.9455 51.4589 32.0885 51.7449 32.2315 52.0309C31.5403 52.1739 30.873 52.3169 30.1818 52.4599C29.872 52.2215 29.586 51.9355 29.3477 51.6018Z" fill="#E74214"/>
<path d="M46.6035 38.8512C47.0802 38.5652 47.6522 38.5652 48.1527 38.3507C49.8687 37.6596 51.1319 36.5155 51.8707 34.7995C51.9422 34.6327 51.9183 34.3229 52.2758 34.4659C52.2997 34.6089 52.3473 34.7519 52.3712 34.8949C51.9898 34.9664 51.9899 35.3239 51.8707 35.586C51.3464 36.6824 50.5122 37.4689 49.5112 38.0885C49.4635 38.1124 49.3682 38.1124 49.2967 38.1124C48.82 38.3746 48.3433 38.6367 47.7952 38.7559C47.39 38.8512 47.0325 39.1134 46.6035 38.8512Z" fill="#E74214"/>
<path d="M42.0997 12.3247C42.0759 13.0159 41.6707 13.5879 41.4562 14.2075C41.4085 14.3267 41.3847 14.4459 41.337 14.565C41.1702 14.6604 40.9795 14.6365 40.8127 14.5889C40.7412 14.5889 40.6697 14.5889 40.5982 14.5889C40.3599 14.5889 40.0977 14.565 39.8594 14.565C40.4075 14.565 40.5505 14.1837 40.7174 13.7547C40.8604 13.3495 40.9795 12.9205 41.2655 12.563C41.5277 12.42 41.7899 12.3247 42.0997 12.3247Z" fill="#E74214"/>
<path d="M51.1074 32.4401C50.8452 32.7976 50.9167 33.2504 50.7975 33.6556C50.2732 35.7291 48.1997 37.3497 46.0785 37.3736C44.7915 37.3974 43.6237 37.0399 42.6227 36.2534C42.575 36.2057 42.4797 36.2057 42.432 36.1819C42.432 36.1104 42.432 36.0389 42.4082 35.9674C42.8372 36.2057 43.2424 36.4917 43.6952 36.7062C46.1024 37.8741 48.9385 36.9446 50.2255 34.5851C50.5354 34.0131 50.8214 33.3696 50.7737 32.6784C50.7737 32.4877 50.8214 32.3686 51.012 32.3447C51.0835 32.3447 51.1312 32.3686 51.1074 32.4401Z" fill="#E74214"/>
<path d="M49.8208 31.4625C50.226 32.9402 49.5586 34.4894 48.1525 35.538C47.0085 36.3722 45.7691 36.4437 44.4583 36.0624C44.2915 36.0147 44.1723 35.8717 44.0293 35.7764C44.649 35.8717 45.221 36.0624 45.8406 36.11C47.3421 36.253 49.2488 34.8707 49.6063 33.1547C49.7255 32.6304 49.7731 32.106 49.654 31.5817C49.6301 31.4864 49.654 31.4149 49.7493 31.3672C49.7731 31.391 49.797 31.4387 49.8208 31.4625Z" fill="#E74214"/>
<path d="M46.6023 38.8511C47.0075 38.9226 47.3888 38.7319 47.7702 38.7558C47.0075 39.1848 46.1495 39.1848 45.3153 39.1371C44.6957 39.1133 44.0998 38.8034 43.4802 38.8988C43.2657 38.7319 43.0988 38.4936 43.0273 38.2314C43.5517 38.3268 44.0283 38.5174 44.5288 38.6604C45.22 38.8749 45.935 38.6366 46.6023 38.8511Z" fill="#E74214"/>
<path d="M42.5508 37.1592C42.7653 37.2068 42.9559 37.2783 43.0751 37.469C42.9559 37.469 42.8129 37.4452 42.7414 37.5882C42.6699 37.4452 42.6223 37.3022 42.5508 37.1592Z" fill="#E74214"/>
<path d="M54.9685 24.7417C54.9685 24.7655 54.9685 24.7894 54.9685 24.837C54.7302 24.8609 54.4918 24.8847 54.2773 24.7655C54.5157 24.7417 54.7302 24.7417 54.9685 24.7417Z" fill="#E74214"/>
<path d="M37.7145 45.2863C37.6906 45.2625 37.643 45.2148 37.6191 45.191C37.8098 45.1671 38.0005 45.1671 38.1673 45.2625C38.0958 45.2625 38.0005 45.2863 37.929 45.2863C37.8575 45.2863 37.786 45.2863 37.7145 45.2863Z" fill="#E74214"/>
<path d="M47.7949 38.7558C48.2954 38.5175 48.7721 38.2553 49.2964 38.1123C48.8674 38.4936 48.3908 38.7796 47.7949 38.7558Z" fill="#E74214"/>
<path d="M47.4609 11.7764C47.8184 11.7764 48.1759 11.7764 48.5334 11.7764C48.2235 12.825 47.7469 13.826 47.3417 14.827C47.1272 15.3752 46.9842 15.971 46.6029 16.4477C46.3407 16.2809 46.1024 16.114 45.8402 15.9472C45.7449 15.8042 45.7925 15.685 45.8402 15.542C46.293 14.3742 46.7697 13.2064 47.2464 12.0385C47.294 11.967 47.3655 11.8717 47.4609 11.7764Z" fill="#E74214"/>
<path d="M47.4611 11.7766C46.9606 13.0636 46.4363 14.3745 45.9358 15.6615C45.8881 15.7568 45.8643 15.8521 45.8404 15.9713C45.5306 15.8521 45.2446 15.733 44.9824 15.5185C45.1493 15.4231 45.2446 15.304 45.3161 15.1371C45.6498 14.2553 46.0549 13.3973 46.3648 12.5155C46.5554 11.9196 46.8414 11.6575 47.4611 11.7766Z" fill="#E74214"/>
<path d="M40.8125 14.5888C40.9793 14.5888 41.17 14.5649 41.3368 14.5649C41.4083 14.5888 41.4798 14.6364 41.5752 14.6603C41.3368 14.6364 41.0508 14.7556 40.8125 14.5888Z" fill="#E74214"/>
<path d="M67.4091 42.4978C67.3376 42.5693 67.2661 42.6408 67.1946 42.7361C66.9324 42.9745 66.6941 43.2366 66.4319 43.475C66.2174 43.618 66.0029 43.7848 65.7884 43.9278C65.5024 44.0946 65.2164 44.2853 64.9304 44.4521C64.6444 44.5951 64.3584 44.7381 64.0724 44.8811C63.7864 45.0003 63.5004 45.0956 63.2144 45.2148C62.8807 45.3101 62.5709 45.4293 62.2372 45.5246C62.0227 45.5246 61.8082 45.5246 61.5938 45.5246C61.5938 44.9765 61.5938 44.4283 61.5938 43.8563C61.5938 43.5703 61.7129 43.4273 61.9751 43.3796C63.5719 43.0698 65.1687 42.7361 66.7656 42.4263C66.9801 42.3786 67.2184 42.331 67.4091 42.4978Z" fill="#E74214"/>
<path d="M43.291 37.5879C43.863 37.6832 44.3873 37.9454 44.9832 38.0407C45.8888 38.2076 46.7468 38.0407 47.6048 37.8501C47.7002 37.8262 47.8193 37.8262 47.9147 37.8024C47.1758 38.2314 46.3417 38.3506 45.5313 38.2552C44.7448 38.1361 43.9345 38.0884 43.291 37.5879Z" fill="#E74214"/>
<path d="M47.8906 37.8027C48.2958 37.5405 48.701 37.2783 49.1776 37.1592C48.8201 37.5167 48.3911 37.7073 47.8906 37.8027Z" fill="#E74214"/>
<path d="M45.1021 33.7266C44.6731 33.6551 44.4348 33.393 44.3633 32.9878C44.6016 33.2261 44.8638 33.4645 45.1021 33.7266Z" fill="#E74214"/>
<path d="M44.2434 32.5351C44.0765 32.3921 44.148 32.2014 44.148 32.0107C44.3149 32.1776 44.2195 32.3682 44.2434 32.5351Z" fill="#E74214"/>
<path d="M45.1016 32.2014C45.1016 31.8439 45.5306 31.4626 45.8881 31.4864C46.2217 31.5102 46.6031 31.8916 46.6031 32.2252C46.6031 32.5827 46.1979 32.9879 45.8404 32.9641C45.4829 32.9641 45.1016 32.5589 45.1016 32.2014Z" fill="#E74214"/>
<path d="M44.0288 35.7528C43.4568 35.4906 42.861 35.2523 42.6465 34.585C43.0993 34.9663 43.576 35.3715 44.0288 35.7528Z" fill="#E74214"/>
<path d="M86.2409 29.0756C87.8854 29.0756 89.083 29.4331 89.8338 30.1481C90.5964 30.8512 90.9778 31.8224 90.9778 33.0618C90.9778 33.8006 90.8228 34.4977 90.513 35.1531C90.2032 35.7966 89.6848 36.315 88.9579 36.7083C88.2429 37.1015 87.2657 37.2981 86.0264 37.2981H84.8645V41.8384H82.1654V29.0756H86.2409ZM86.0979 31.2921H84.8645V35.0816H85.7583C86.5209 35.0816 87.1227 34.9327 87.5636 34.6348C88.0165 34.3249 88.2429 33.8304 88.2429 33.1511C88.2429 31.9118 87.5279 31.2921 86.0979 31.2921ZM104.973 35.4391C104.973 36.7619 104.752 37.9178 104.311 38.9069C103.882 39.884 103.221 40.6467 102.327 41.1949C101.433 41.743 100.289 42.0171 98.8951 42.0171C97.5128 42.0171 96.3688 41.743 95.4631 41.1949C94.5694 40.6467 93.9021 39.8781 93.4611 38.889C93.0321 37.8999 92.8176 36.744 92.8176 35.4213C92.8176 34.0985 93.0321 32.9485 93.4611 31.9714C93.9021 30.9942 94.5694 30.2375 95.4631 29.7013C96.3688 29.1531 97.5188 28.879 98.913 28.879C100.295 28.879 101.433 29.1531 102.327 29.7013C103.221 30.2375 103.882 31.0002 104.311 31.9893C104.752 32.9664 104.973 34.1164 104.973 35.4391ZM95.6598 35.4391C95.6598 36.7738 95.916 37.8284 96.4284 38.603C96.9408 39.3657 97.7631 39.747 98.8951 39.747C100.051 39.747 100.879 39.3657 101.38 38.603C101.88 37.8284 102.131 36.7738 102.131 35.4391C102.131 34.0925 101.88 33.0379 101.38 32.2753C100.879 31.5126 100.057 31.1313 98.913 31.1313C97.769 31.1313 96.9408 31.5126 96.4284 32.2753C95.916 33.0379 95.6598 34.0925 95.6598 35.4391ZM113.032 31.1491C111.996 31.1491 111.203 31.5364 110.655 32.311C110.107 33.0856 109.833 34.1462 109.833 35.4928C109.833 36.8513 110.083 37.9059 110.584 38.6566C111.096 39.3955 111.912 39.7649 113.032 39.7649C113.557 39.7649 114.075 39.7053 114.588 39.5861C115.112 39.467 115.678 39.3001 116.286 39.0856V41.3558C115.726 41.5822 115.171 41.749 114.623 41.8563C114.075 41.9635 113.461 42.0171 112.782 42.0171C111.471 42.0171 110.387 41.749 109.529 41.2128C108.683 40.6646 108.057 39.9019 107.652 38.9248C107.247 37.9357 107.044 36.7857 107.044 35.4749C107.044 34.1879 107.277 33.0498 107.741 32.0608C108.206 31.0717 108.879 30.2971 109.761 29.737C110.655 29.1769 111.745 28.8969 113.032 28.8969C113.664 28.8969 114.296 28.9803 114.927 29.1471C115.571 29.302 116.184 29.5165 116.768 29.7906L115.892 31.9893C115.416 31.7628 114.933 31.5662 114.445 31.3994C113.968 31.2325 113.497 31.1491 113.032 31.1491ZM127.131 41.8384L125.594 37.888H120.535L119.016 41.8384H117.389L122.376 29.022H123.824L128.793 41.8384H127.131ZM123.681 32.597C123.645 32.5017 123.586 32.3289 123.502 32.0786C123.419 31.8284 123.335 31.5722 123.252 31.31C123.18 31.0359 123.121 30.8274 123.073 30.6844C122.99 31.0538 122.894 31.4173 122.787 31.7748C122.68 32.1203 122.591 32.3944 122.519 32.597L121.071 36.458H125.111L123.681 32.597ZM133.322 41.8384H131.713V30.4878H127.727V29.0756H137.29V30.4878H133.322V41.8384ZM150.002 35.4391C150.002 36.7619 149.775 37.9178 149.322 38.9069C148.882 39.884 148.226 40.6467 147.356 41.1949C146.486 41.743 145.408 42.0171 144.121 42.0171C142.798 42.0171 141.696 41.743 140.814 41.1949C139.944 40.6467 139.295 39.8781 138.866 38.889C138.437 37.8999 138.222 36.744 138.222 35.4213C138.222 34.1104 138.437 32.9664 138.866 31.9893C139.295 31.0121 139.944 30.2494 140.814 29.7013C141.696 29.1531 142.804 28.879 144.139 28.879C145.414 28.879 146.486 29.1531 147.356 29.7013C148.226 30.2375 148.882 31.0002 149.322 31.9893C149.775 32.9664 150.002 34.1164 150.002 35.4391ZM139.92 35.4391C139.92 37.0479 140.26 38.317 140.939 39.2465C141.618 40.1641 142.679 40.6229 144.121 40.6229C145.575 40.6229 146.635 40.1641 147.303 39.2465C147.97 38.317 148.304 37.0479 148.304 35.4391C148.304 33.8304 147.97 32.5732 147.303 31.6675C146.635 30.7499 145.581 30.2911 144.139 30.2911C142.697 30.2911 141.63 30.7499 140.939 31.6675C140.26 32.5732 139.92 33.8304 139.92 35.4391ZM158.461 41.8384L154.26 30.6486H154.189C154.225 31.018 154.254 31.5185 154.278 32.1501C154.302 32.7698 154.314 33.4193 154.314 34.0985V41.8384H152.83V29.0756H155.208L159.14 39.5325H159.212L163.216 29.0756H165.575V41.8384H163.984V33.9913C163.984 33.3716 163.996 32.7579 164.02 32.1501C164.056 31.5424 164.086 31.0478 164.11 30.6665H164.038L159.784 41.8384H158.461Z" fill="#E74214"/>
</svg>
