<svg width="192" height="72" viewBox="0 0 192 72" fill="none" xmlns="http://www.w3.org/2000/svg">
<path d="M38.603 29.9409C40.3307 26.4874 42.0904 23.0339 43.7861 19.5484C44.106 18.9408 44.4259 18.685 45.1298 18.717C47.4974 18.781 49.865 18.749 52.2325 18.717C52.8724 18.717 53.0964 18.8449 53.0964 19.5164C53.0644 22.906 53.0644 26.2956 53.0964 29.6531C53.0964 30.3566 52.8724 30.5485 52.2005 30.5485C47.9453 30.5165 43.7221 30.5485 39.4668 30.5165C38.539 30.5165 38.379 30.7723 38.379 31.6357C38.411 38.7666 38.379 45.8655 38.411 52.9963C38.411 53.8277 38.1871 54.1155 37.3552 54.0516C36.3314 53.9876 35.3076 53.9557 34.2838 54.0516C33.3559 54.1155 33.1959 53.7638 33.1959 52.9004C33.2279 43.691 33.2279 34.5136 33.2279 25.3043C33.2279 23.8973 33.2279 23.8973 31.7882 23.8973C26.5731 23.8973 21.3901 23.8973 16.175 23.8973C15.3111 23.8973 15.0872 23.7694 15.5671 22.938C16.207 21.7868 16.8149 20.5717 17.3588 19.3565C17.5827 18.8769 17.8707 18.717 18.4146 18.717C24.7814 18.749 31.1483 18.749 37.5152 18.717C38.315 18.717 38.411 19.0048 38.411 19.7083C38.379 23.1298 38.411 26.5194 38.411 29.9409C38.475 29.9409 38.539 29.9409 38.603 29.9409Z" fill="#E74214"/>
<path d="M11.7598 30.5485C12.6236 28.8217 13.4235 27.2549 14.1913 25.688C14.3833 25.2723 14.7032 25.2723 15.0552 25.2723C20.3662 25.2723 25.6773 25.2723 30.9883 25.2723C31.6602 25.2723 31.7882 25.4961 31.7882 26.1357C31.7562 35.1532 31.7562 44.1707 31.7882 53.1882C31.7882 53.9237 31.5002 54.0836 30.8603 54.0516C29.7725 54.0196 28.6527 53.9876 27.5649 54.0516C26.7331 54.1155 26.5091 53.8277 26.5091 52.9963C26.5411 45.9614 26.5091 38.8945 26.5411 31.8596C26.5411 30.8363 26.3492 30.4845 25.2294 30.5165C20.8461 30.5805 16.4309 30.5485 11.7598 30.5485Z" fill="#E74214"/>
<path d="M62.7464 30.1201V18.5125H71.9317V30.1201H69.4769V20.5609H65.2012V30.1201H62.7464ZM78.1601 21.0812C79.3848 21.0812 80.3548 21.4334 81.0701 22.1379C81.7854 22.8315 82.1431 23.8232 82.1431 25.1129V26.2834H76.4206C76.4422 26.9662 76.6427 27.5027 77.0221 27.8929C77.4122 28.2831 77.9487 28.4781 78.6315 28.4781C79.2059 28.4781 79.7262 28.424 80.1922 28.3156C80.6583 28.1964 81.1405 28.0175 81.6391 27.7791V29.6487C81.2056 29.8654 80.745 30.0226 80.2572 30.1201C79.7804 30.2285 79.2005 30.2827 78.5177 30.2827C77.629 30.2827 76.8432 30.1201 76.1604 29.795C75.4776 29.459 74.9412 28.955 74.551 28.2831C74.1608 27.6111 73.9657 26.7657 73.9657 25.7469C73.9657 24.7065 74.1391 23.8449 74.486 23.1621C74.8436 22.4684 75.3368 21.9482 75.9654 21.6014C76.594 21.2546 77.3255 21.0812 78.1601 21.0812ZM78.1763 22.8044C77.7103 22.8044 77.3201 22.9561 77.0058 23.2596C76.7024 23.5631 76.5235 24.0345 76.4693 24.674H79.8671C79.8562 24.1321 79.7153 23.6877 79.4444 23.3409C79.1734 22.9832 78.7507 22.8044 78.1763 22.8044ZM88.8869 21.0812C89.884 21.0812 90.6914 21.4713 91.3092 22.2517C91.9269 23.0212 92.2358 24.1592 92.2358 25.6657C92.2358 27.1722 91.9161 28.321 91.2767 29.1122C90.6372 29.8925 89.8189 30.2827 88.8218 30.2827C88.1824 30.2827 87.673 30.1689 87.2937 29.9413C86.9143 29.7029 86.6054 29.4373 86.367 29.1447H86.2369C86.3237 29.5999 86.367 30.0334 86.367 30.4453V34.0218H83.9447V21.2437H85.9118L86.2532 22.398H86.367C86.6054 22.0403 86.9252 21.7314 87.3262 21.4713C87.7272 21.2112 88.2474 21.0812 88.8869 21.0812ZM88.1065 23.0157C87.4779 23.0157 87.0335 23.2108 86.7734 23.601C86.5242 23.9912 86.3887 24.5873 86.367 25.3893V25.6494C86.367 26.5056 86.4916 27.1667 86.7409 27.6328C87.001 28.088 87.4671 28.3156 88.139 28.3156C88.6918 28.3156 89.0982 28.088 89.3583 27.6328C89.6293 27.1667 89.7647 26.5002 89.7647 25.6331C89.7647 23.8882 89.212 23.0157 88.1065 23.0157ZM101.938 23.5685C101.938 24.0454 101.787 24.4518 101.483 24.7878C101.19 25.1238 100.752 25.3405 100.166 25.4381V25.5031C100.784 25.579 101.277 25.7903 101.646 26.1371C102.025 26.4839 102.215 26.9283 102.215 27.4702C102.215 27.9796 102.079 28.4348 101.808 28.8358C101.548 29.2368 101.131 29.5511 100.556 29.7787C99.982 30.0063 99.2288 30.1201 98.2967 30.1201H94.0698V21.2437H98.2967C98.9903 21.2437 99.6081 21.3196 100.15 21.4713C100.703 21.6122 101.136 21.8507 101.451 22.1866C101.776 22.5226 101.938 22.9832 101.938 23.5685ZM99.4835 23.7636C99.4835 23.2217 99.0554 22.9507 98.1991 22.9507H96.4922V24.7065H97.9228C98.4322 24.7065 98.8169 24.636 99.077 24.4951C99.348 24.3434 99.4835 24.0996 99.4835 23.7636ZM99.7111 27.3401C99.7111 26.9933 99.5756 26.7441 99.3046 26.5923C99.0337 26.4297 98.6273 26.3485 98.0853 26.3485H96.4922V28.4456H98.1341C98.5893 28.4456 98.9632 28.3643 99.2559 28.2018C99.5593 28.0284 99.7111 27.7412 99.7111 27.3401ZM104.131 30.1201V21.2437H106.554V24.674H107.724C109.079 24.674 110.082 24.8907 110.732 25.3243C111.382 25.7578 111.707 26.4135 111.707 27.2914C111.707 28.1476 111.404 28.8358 110.797 29.356C110.19 29.8654 109.193 30.1201 107.806 30.1201H104.131ZM112.992 30.1201V21.2437H115.414V30.1201H112.992ZM107.676 28.4456C108.152 28.4456 108.537 28.3589 108.83 28.1855C109.133 28.0121 109.285 27.7249 109.285 27.3239C109.285 26.6736 108.738 26.3485 107.643 26.3485H106.554V28.4456H107.676ZM126.284 17.4233C126.229 17.9869 126.072 18.4854 125.812 18.919C125.552 19.3416 125.146 19.6722 124.593 19.9106C124.04 20.1491 123.298 20.2683 122.366 20.2683C121.412 20.2683 120.664 20.1545 120.122 19.9269C119.591 19.6885 119.212 19.3579 118.984 18.9352C118.757 18.5125 118.621 18.0086 118.578 17.4233H120.74C120.794 18.0194 120.946 18.415 121.195 18.6101C121.444 18.8052 121.851 18.9027 122.414 18.9027C122.88 18.9027 123.26 18.7997 123.552 18.5938C123.856 18.377 124.035 17.9869 124.089 17.4233H126.284ZM120.122 24.7553C120.122 24.9395 120.111 25.1671 120.09 25.4381C120.079 25.709 120.063 25.9854 120.041 26.2672C120.03 26.549 120.014 26.7982 119.992 27.015C119.97 27.2318 119.954 27.3835 119.943 27.4702L124.04 21.2437H126.95V30.1201H124.609V26.5761C124.609 26.2834 124.62 25.9637 124.642 25.6169C124.663 25.2592 124.685 24.9287 124.707 24.6252C124.739 24.3109 124.761 24.0725 124.772 23.9099L120.691 30.1201H117.781V21.2437H120.122V24.7553ZM138.442 30.1201H135.988V20.5609H132.834V18.5125H141.596V20.5609H138.442V30.1201ZM147.161 21.0812C148.158 21.0812 148.966 21.4713 149.583 22.2517C150.201 23.0212 150.51 24.1592 150.51 25.6657C150.51 27.1722 150.19 28.321 149.551 29.1122C148.911 29.8925 148.093 30.2827 147.096 30.2827C146.457 30.2827 145.947 30.1689 145.568 29.9413C145.189 29.7029 144.88 29.4373 144.641 29.1447H144.511C144.598 29.5999 144.641 30.0334 144.641 30.4453V34.0218H142.219V21.2437H144.186L144.527 22.398H144.641C144.88 22.0403 145.199 21.7314 145.6 21.4713C146.001 21.2112 146.522 21.0812 147.161 21.0812ZM146.381 23.0157C145.752 23.0157 145.308 23.2108 145.048 23.601C144.798 23.9912 144.663 24.5873 144.641 25.3893V25.6494C144.641 26.5056 144.766 27.1667 145.015 27.6328C145.275 28.088 145.741 28.3156 146.413 28.3156C146.966 28.3156 147.372 28.088 147.633 27.6328C147.903 27.1667 148.039 26.5002 148.039 25.6331C148.039 23.8882 147.486 23.0157 146.381 23.0157ZM156.002 21.0812C157.227 21.0812 158.197 21.4334 158.912 22.1379C159.627 22.8315 159.985 23.8232 159.985 25.1129V26.2834H154.262C154.284 26.9662 154.485 27.5027 154.864 27.8929C155.254 28.2831 155.791 28.4781 156.473 28.4781C157.048 28.4781 157.568 28.424 158.034 28.3156C158.5 28.1964 158.982 28.0175 159.481 27.7791V29.6487C159.047 29.8654 158.587 30.0226 158.099 30.1201C157.622 30.2285 157.042 30.2827 156.36 30.2827C155.471 30.2827 154.685 30.1201 154.002 29.795C153.319 29.459 152.783 28.955 152.393 28.2831C152.003 27.6111 151.808 26.7657 151.808 25.7469C151.808 24.7065 151.981 23.8449 152.328 23.1621C152.685 22.4684 153.179 21.9482 153.807 21.6014C154.436 21.2546 155.167 21.0812 156.002 21.0812ZM156.018 22.8044C155.552 22.8044 155.162 22.9561 154.848 23.2596C154.544 23.5631 154.365 24.0345 154.311 24.674H157.709C157.698 24.1321 157.557 23.6877 157.286 23.3409C157.015 22.9832 156.593 22.8044 156.018 22.8044ZM165.396 30.2827C164.073 30.2827 163.049 29.9196 162.323 29.1935C161.608 28.4565 161.25 27.3022 161.25 25.7307C161.25 24.6469 161.434 23.7636 161.803 23.0808C162.171 22.398 162.681 21.894 163.331 21.5689C163.992 21.2437 164.751 21.0812 165.607 21.0812C166.214 21.0812 166.74 21.1408 167.184 21.26C167.639 21.3792 168.035 21.5201 168.371 21.6827L167.655 23.5522C167.276 23.4005 166.918 23.2759 166.582 23.1783C166.257 23.0808 165.932 23.032 165.607 23.032C164.35 23.032 163.721 23.9261 163.721 25.7144C163.721 26.6032 163.884 27.2589 164.209 27.6815C164.545 28.1042 165.011 28.3156 165.607 28.3156C166.116 28.3156 166.566 28.2505 166.956 28.1205C167.346 27.9796 167.726 27.7899 168.094 27.5515V29.6161C167.726 29.8546 167.336 30.0226 166.924 30.1201C166.523 30.2285 166.013 30.2827 165.396 30.2827ZM177.323 23.0645H174.413V30.1201H171.991V23.0645H169.081V21.2437H177.323V23.0645Z" fill="#E74214"/>
<path d="M66.225 40.0089V40.9364H63.9991V45.3066H62.8787V40.0089H66.225ZM68.7295 40.0089C69.4121 40.0089 69.9093 40.1573 70.2209 40.4541C70.5375 40.746 70.6958 41.1491 70.6958 41.6635C70.6958 41.9702 70.6315 42.2596 70.5028 42.5317C70.3742 42.7988 70.1591 43.0139 69.8573 43.1772C69.5605 43.3404 69.1549 43.422 68.6405 43.422H68.1582V45.3066H67.0378V40.0089H68.7295ZM68.6702 40.929H68.1582V42.502H68.5292C68.8458 42.502 69.0956 42.4401 69.2786 42.3165C69.4666 42.1879 69.5605 41.9826 69.5605 41.7006C69.5605 41.1862 69.2638 40.929 68.6702 40.929ZM74.3087 43.7559C74.1603 44.0923 74.002 44.3841 73.8338 44.6314C73.6706 44.8738 73.4603 45.0593 73.2031 45.1879C72.9459 45.3165 72.6095 45.3808 72.194 45.3808C72.0654 45.3808 71.9244 45.3709 71.7711 45.3512C71.6178 45.3314 71.4768 45.3042 71.3482 45.2695V44.305C71.4669 44.3544 71.598 44.3891 71.7414 44.4089C71.8849 44.4286 72.0184 44.4385 72.1421 44.4385C72.3894 44.4385 72.5675 44.3792 72.6763 44.2605C72.7851 44.1368 72.8717 43.9884 72.936 43.8153L71.1033 40.0089H72.2905L73.2773 42.3016C73.3119 42.3758 73.3589 42.4822 73.4183 42.6207C73.4776 42.7542 73.5222 42.868 73.5518 42.962H73.5889C73.6186 42.873 73.6607 42.7567 73.7151 42.6133C73.7744 42.4698 73.8264 42.3437 73.8709 42.2349L74.7909 40.0089H75.9484L74.3087 43.7559ZM76.6168 45.3066V40.0089H80.809V45.3066H79.6886V40.9438H77.7372V45.3066H76.6168ZM82.1454 45.3066V40.0089H86.3376V45.3066H85.2172V40.9438H83.2658V45.3066H82.1454ZM90.9164 45.3066L90.5306 44.0453H88.6015L88.2156 45.3066H87.0062L88.876 39.9867H90.2486L92.1258 45.3066H90.9164ZM89.8777 41.8713C89.8529 41.7872 89.8208 41.6809 89.7812 41.5523C89.7416 41.4236 89.7021 41.2926 89.6625 41.159C89.6229 41.0254 89.5908 40.9092 89.566 40.8103C89.5413 40.9092 89.5067 41.0329 89.4621 41.1813C89.4226 41.3247 89.383 41.4632 89.3434 41.5968C89.3088 41.7254 89.2816 41.8169 89.2618 41.8713L88.8834 43.103H90.2635L89.8777 41.8713ZM67.197 54.3066H65.9208L63.9991 51.6207V54.3066H62.8787V49.0089H63.9991V51.5762L65.8986 49.0089H67.0931L65.164 51.5539L67.197 54.3066ZM72.5269 51.6504C72.5269 52.1994 72.4354 52.6792 72.2524 53.0898C72.0743 53.4954 71.7998 53.812 71.4288 54.0395C71.0578 54.2671 70.583 54.3808 70.0042 54.3808C69.4304 54.3808 68.9556 54.2671 68.5796 54.0395C68.2086 53.812 67.9316 53.4929 67.7486 53.0824C67.5705 52.6718 67.4815 52.192 67.4815 51.643C67.4815 51.0939 67.5705 50.6166 67.7486 50.2109C67.9316 49.8053 68.2086 49.4912 68.5796 49.2686C68.9556 49.0411 69.4329 48.9273 70.0116 48.9273C70.5854 48.9273 71.0578 49.0411 71.4288 49.2686C71.7998 49.4912 72.0743 49.8078 72.2524 50.2184C72.4354 50.624 72.5269 51.1013 72.5269 51.6504ZM68.6612 51.6504C68.6612 52.2044 68.7676 52.6421 68.9803 52.9637C69.193 53.2802 69.5343 53.4385 70.0042 53.4385C70.484 53.4385 70.8278 53.2802 71.0356 52.9637C71.2433 52.6421 71.3472 52.2044 71.3472 51.6504C71.3472 51.0914 71.2433 50.6537 71.0356 50.3371C70.8278 50.0205 70.4865 49.8622 70.0116 49.8622C69.5368 49.8622 69.193 50.0205 68.9803 50.3371C68.7676 50.6537 68.6612 51.0914 68.6612 51.6504ZM75.8651 54.3066L74.5889 50.1516H74.5592C74.5641 50.2505 74.5716 50.3989 74.5814 50.5968C74.5913 50.7946 74.6012 51.0073 74.6111 51.2349C74.621 51.4575 74.626 51.6603 74.626 51.8433V54.3066H73.6243V49.0089H75.1528L76.4067 53.0601H76.429L77.7571 49.0089H79.2856V54.3066H78.2394V51.7988C78.2394 51.6306 78.2419 51.4377 78.2468 51.22C78.2567 51.0024 78.2641 50.7971 78.2691 50.6042C78.279 50.4063 78.2864 50.2579 78.2913 50.159H78.2616L76.8964 54.3066H75.8651ZM80.6238 54.3066V49.0089H84.8159V54.3066H83.6956V49.9438H81.7442V54.3066H80.6238ZM89.3948 54.3066L89.009 53.0453H87.0798L86.694 54.3066H85.4846L87.3544 48.9867H88.727L90.6042 54.3066H89.3948ZM88.356 50.8713C88.3313 50.7872 88.2991 50.6809 88.2596 50.5523C88.22 50.4236 88.1804 50.2926 88.1409 50.159C88.1013 50.0254 88.0691 49.9092 88.0444 49.8103C88.0197 49.9092 87.985 50.0329 87.9405 50.1813C87.9009 50.3247 87.8614 50.4632 87.8218 50.5968C87.7872 50.7254 87.76 50.8169 87.7402 50.8713L87.3618 52.103H88.7419L88.356 50.8713ZM95.6157 54.3066H94.4953V52.0214H92.3956V54.3066H91.2752V49.0089H92.3956V51.0865H94.4953V49.0089H95.6157V54.3066ZM96.9487 49.0089H97.9578V51.5688C97.9578 51.6924 97.9553 51.8309 97.9503 51.9843C97.9454 52.1376 97.9404 52.2885 97.9355 52.4369C97.9305 52.5803 97.9256 52.7064 97.9207 52.8153C97.9157 52.9191 97.9108 52.9909 97.9058 53.0304H97.9281L100.377 49.0089H101.72V54.3066H100.718V51.7617C100.718 51.6281 100.72 51.4822 100.725 51.3239C100.73 51.1607 100.735 51.0049 100.74 50.8565C100.75 50.7081 100.757 50.5795 100.762 50.4706C100.772 50.3569 100.78 50.2827 100.785 50.248H100.755L98.2991 54.3066H96.9487V49.0089ZM107.323 47.2653C107.299 47.5225 107.227 47.7501 107.108 47.9479C106.989 48.1408 106.804 48.2917 106.552 48.4005C106.299 48.5093 105.961 48.5638 105.535 48.5638C105.1 48.5638 104.759 48.5118 104.511 48.4079C104.269 48.2991 104.096 48.1483 103.992 47.9553C103.888 47.7624 103.826 47.5324 103.806 47.2653H104.793C104.818 47.5374 104.887 47.7179 105.001 47.8069C105.115 47.896 105.3 47.9405 105.557 47.9405C105.77 47.9405 105.943 47.8935 106.077 47.7995C106.215 47.7006 106.297 47.5225 106.322 47.2653H107.323ZM103.057 49.0089H104.066V51.5688C104.066 51.6924 104.064 51.8309 104.059 51.9843C104.054 52.1376 104.049 52.2885 104.044 52.4369C104.039 52.5803 104.034 52.7064 104.029 52.8153C104.024 52.9191 104.019 52.9909 104.014 53.0304H104.036L106.485 49.0089H107.828V54.3066H106.826V51.7617C106.826 51.6281 106.829 51.4822 106.834 51.3239C106.839 51.1607 106.843 51.0049 106.848 50.8565C106.858 50.7081 106.866 50.5795 106.871 50.4706C106.881 50.3569 106.888 50.2827 106.893 50.248H106.863L104.407 54.3066H103.057V49.0089Z" fill="#E74214"/>
</svg>
