<svg width="192" height="72" viewBox="0 0 192 72" fill="none" xmlns="http://www.w3.org/2000/svg">
<path d="M119.63 55.9889C113.31 65.0672 98.802 68.9743 87.1381 64.9236C74.4113 60.4993 65.9076 48.2322 66.4247 35.017C66.9418 21.3708 76.2499 9.59203 89.1204 6.28822C102.307 2.89823 115.005 8.41415 121.44 17.4637C108.34 6.28823 94.78 4.82306 81.6222 17.2626C73.0898 25.3354 71.6533 38.1197 77.1118 48.4907C81.2774 56.3911 87.8851 61.1888 96.6186 62.7115C105.237 64.1766 112.937 61.6772 119.63 55.9889Z" fill="#E74214"/>
<path d="M87.1685 55.6442C98.8036 60.3557 110.64 54.3514 114.949 44.4113C120.58 31.5121 112.277 16.688 98.3439 14.7345C94.5518 14.1886 90.9319 14.8207 87.3696 15.9985C87.2834 15.9124 87.2259 15.8262 87.1397 15.7687C101.475 5.51255 122.189 13.9588 125.263 31.3397C127.647 44.9284 119.23 57.4254 105.699 60.0397C98.9472 61.3612 92.6269 59.9822 86.9961 55.9027C87.0536 55.8166 87.111 55.7304 87.1685 55.6442Z" fill="#E74214"/>
<path d="M99.7519 32.0581C99.7519 33.9255 99.7519 35.7929 99.7519 37.6602C99.7519 38.0912 99.8094 38.6083 99.1486 38.5795C98.5741 38.5508 98.5166 38.1199 98.5166 37.6602C98.5166 34.8735 98.5166 32.1156 98.5166 29.3289C98.5166 29.0703 98.4304 28.6107 98.7464 28.6107C99.6945 28.5532 100.671 28.6394 101.619 28.5532C102.941 28.4383 103.142 29.4151 103.515 30.3057C103.975 31.3686 104.435 32.4029 105.009 33.7531C105.613 32.2592 106.158 31.0239 106.618 29.7311C106.934 28.8692 107.336 28.4958 108.342 28.5245C111.272 28.6394 111.272 28.5532 111.272 31.5697C111.272 33.5233 111.243 35.4768 111.301 37.4591C111.33 38.321 111.042 38.6083 110.152 38.637C107.365 38.6945 107.365 38.7232 107.365 35.994C107.365 34.7012 107.365 33.4084 107.365 32.1156C107.279 32.0868 107.221 32.0581 107.135 32.0294C106.647 33.3509 106.158 34.7012 105.67 36.0227C105.469 36.5685 105.325 37.1144 105.067 37.6315C104.751 38.2061 104.406 38.6945 103.573 38.6657C102.768 38.637 102.395 38.2923 102.136 37.574C101.476 35.7067 100.729 33.8968 100.01 32.0294C99.9243 32.0007 99.8381 32.0294 99.7519 32.0581Z" fill="#E74214"/>
<path d="M96.5906 33.4661C96.5906 34.8451 96.5619 36.2528 96.5906 37.6318C96.6194 38.3788 96.3033 38.6086 95.5851 38.6373C92.4824 38.781 92.4824 38.8097 92.4824 35.6783C92.4824 33.5811 92.5112 31.4839 92.4824 29.3579C92.4824 28.5823 92.6835 28.2662 93.5167 28.2375C96.5906 28.1513 96.5906 28.0939 96.5906 31.1391C96.5906 31.9148 96.5906 32.6905 96.5906 33.4661Z" fill="#E74214"/>
<path d="M87.3688 15.9989C87.1677 16.2574 86.7655 16.3724 86.6506 16.1713C86.4782 15.7978 87.024 15.9701 87.1389 15.769C87.2251 15.8552 87.2826 15.9414 87.3688 15.9989Z" fill="#E74214"/>
<path d="M86.9942 55.903C86.8219 55.8455 86.6782 55.7593 86.5059 55.7019C86.707 55.5008 86.9368 55.5583 87.1379 55.6444C87.1092 55.7306 87.0517 55.8168 86.9942 55.903Z" fill="#E74214"/>
<path d="M88.2012 32.7479C89.6951 33.2938 90.8155 34.0407 90.7868 35.7357C90.758 37.4882 89.8387 38.5512 88.0863 38.5799C85.5869 38.6373 83.1162 38.5799 80.6168 38.6086C79.8411 38.6086 79.4964 38.3788 79.5251 37.5456C79.5538 34.8164 79.5825 32.0872 79.5251 29.358C79.4964 28.4386 79.8698 28.2375 80.703 28.2663C83.0587 28.3237 85.3858 28.3237 87.7415 28.2663C88.9194 28.2375 89.8962 28.4961 90.1547 29.7602C90.4133 31.0242 89.9823 32.0297 88.6896 32.5181C88.5459 32.5468 88.431 32.633 88.2012 32.7479ZM83.5184 35.6208C83.8057 36.3965 82.8289 37.9191 84.8686 37.7755C86.1902 37.6893 86.9658 36.9136 86.9658 35.4772C86.9946 33.9258 86.5062 33.5524 84.9548 33.4087C82.9725 33.2076 83.6333 34.5866 83.5184 35.6208ZM83.5471 30.8231C83.4897 31.6275 83.346 32.4607 84.7537 32.3457C85.9029 32.2596 86.5924 31.9435 86.5924 30.7082C86.5924 29.5016 85.8741 29.1569 84.725 29.0994C83.2886 29.0419 83.5184 29.9325 83.5471 30.8231Z" fill="#E74214"/>
<path d="M81.3183 40.7588H82.1129L84.0102 45.1201H82.926L82.5503 44.1961H80.8563L80.4928 45.1201H79.4333L81.3183 40.7588ZM81.6879 42.0278L81.1581 43.383H82.2238L81.6879 42.0278ZM87.3009 41.8923C87.2065 41.7773 87.0894 41.689 86.9498 41.6274C86.8143 41.5658 86.6562 41.535 86.4755 41.535C86.2948 41.535 86.1264 41.5699 85.9704 41.6397C85.8184 41.7095 85.6849 41.8081 85.57 41.9354C85.4591 42.0586 85.3708 42.2064 85.3051 42.3789C85.2435 42.5514 85.2127 42.7383 85.2127 42.9395C85.2127 43.1448 85.2435 43.3337 85.3051 43.5062C85.3708 43.6746 85.4591 43.8224 85.57 43.9497C85.6808 44.0729 85.8102 44.1694 85.958 44.2392C86.11 44.3091 86.2722 44.344 86.4447 44.344C86.6418 44.344 86.8163 44.3029 86.9683 44.2208C87.1202 44.1386 87.2455 44.0236 87.344 43.8758L88.1448 44.4733C87.96 44.732 87.726 44.923 87.4426 45.0462C87.1592 45.1694 86.8677 45.231 86.5679 45.231C86.227 45.231 85.9129 45.1776 85.6254 45.0708C85.3379 44.9641 85.0895 44.8121 84.88 44.615C84.6706 44.4138 84.5063 44.1715 84.3872 43.8881C84.2722 43.6048 84.2148 43.2885 84.2148 42.9395C84.2148 42.5904 84.2722 42.2742 84.3872 41.9908C84.5063 41.7075 84.6706 41.4672 84.88 41.2701C85.0895 41.0689 85.3379 40.9149 85.6254 40.8081C85.9129 40.7013 86.227 40.648 86.5679 40.648C86.6911 40.648 86.8184 40.6603 86.9498 40.6849C87.0853 40.7055 87.2167 40.7404 87.344 40.7896C87.4754 40.8389 87.6007 40.9046 87.7198 40.9868C87.8389 41.0689 87.9457 41.1695 88.0401 41.2886L87.3009 41.8923ZM90.1011 40.7588H90.8957L92.793 45.1201H91.7088L91.3331 44.1961H89.6391L89.2756 45.1201H88.2161L90.1011 40.7588ZM90.4707 42.0278L89.9409 43.383H91.0066L90.4707 42.0278ZM93.2316 40.7588H94.6731C95.0222 40.7588 95.3527 40.7979 95.6648 40.8759C95.9811 40.9539 96.2562 41.0812 96.4903 41.2578C96.7244 41.4303 96.9092 41.6561 97.0447 41.9354C97.1843 42.2147 97.2541 42.5535 97.2541 42.9518C97.2541 43.305 97.1864 43.6171 97.0508 43.8881C96.9194 44.1551 96.7408 44.3809 96.5149 44.5657C96.2891 44.7464 96.0283 44.884 95.7326 44.9784C95.4369 45.0729 95.1269 45.1201 94.8024 45.1201H93.2316V40.7588ZM94.1926 44.2331H94.6916C94.9133 44.2331 95.1187 44.2105 95.3076 44.1653C95.5006 44.1201 95.6669 44.0462 95.8065 43.9436C95.9462 43.8368 96.055 43.6992 96.133 43.5308C96.2151 43.3584 96.2562 43.1489 96.2562 42.9025C96.2562 42.689 96.2151 42.5042 96.133 42.3481C96.055 42.188 95.9482 42.0565 95.8127 41.9539C95.6772 41.8512 95.517 41.7752 95.3322 41.726C95.1515 41.6726 94.9606 41.6459 94.7593 41.6459H94.1926V44.2331ZM97.9427 40.7588H100.906V41.6459H98.9037V42.459H100.795V43.346H98.9037V44.2331H101.017V45.1201H97.9427V40.7588ZM101.786 40.7588H103.24L104.244 43.6048H104.256L105.266 40.7588H106.714V45.1201H105.753V41.7752H105.741L104.595 45.1201H103.862L102.759 41.7752H102.747V45.1201H101.786V40.7588ZM108.675 43.2598L107.036 40.7588H108.231L109.155 42.3912L110.135 40.7588H111.274L109.636 43.2598V45.1201H108.675V43.2598Z" fill="#E74214"/>
</svg>
