<svg width="192" height="72" viewBox="0 0 192 72" fill="none" xmlns="http://www.w3.org/2000/svg">
<g clip-path="url(#clip0_1_493)">
<path fill-rule="evenodd" clip-rule="evenodd" d="M33.6575 51.8404H33.6806L49.3497 36.1263L33.669 20.4004L18 36.1146V36.1379L33.6575 51.8404Z" fill="#E74214"/>
<path d="M36.8973 34.1609H29.1976V28.4209H27.9082V43.8321H29.1976V35.4606H36.8973V34.1609Z" fill="#E74214"/>
<path d="M25.4961 30.8418H26.7925V41.4127H25.4961V30.8418Z" fill="#E74214"/>
<path d="M23.0938 33.3027H24.3835V38.9949H23.0938V33.3027Z" fill="#E74214"/>
<path d="M38.1402 36.754H30.4023V38.047H38.1402V43.8321H39.4299V28.4209H38.1402V36.754Z" fill="#E74214"/>
<path d="M40.5449 30.8418H41.8413V41.4127H40.5449V30.8418Z" fill="#E74214"/>
<path d="M42.9551 33.3027H44.2448V38.9949H42.9551V33.3027Z" fill="#E74214"/>
<path d="M62.4984 27.1504V33.806H59.7022V27.1504H55.2461V44.9344H59.7022V38.2782H62.4984V44.9344H66.955V27.1504H62.4984Z" fill="#E74214"/>
<path d="M75.5361 33.8067H72.7381V33.027C72.7381 32.2519 73.3649 31.6234 74.138 31.6234C74.9109 31.6234 75.5376 32.2519 75.5376 33.027H75.5361V33.8067ZM74.137 27.1562C70.9041 27.1562 68.2832 29.7846 68.2832 33.027V44.9363H72.7381V38.279H75.5361V44.9363H79.9909V33.027C79.9909 29.7846 77.3701 27.1562 74.137 27.1562Z" fill="#E74214"/>
<path d="M93.0149 27.1504V27.1521L89.3945 33.4407L85.7734 27.1504L85.7718 27.1514V27.1504H81.3184V44.9344H85.7718V36.1049L89.1451 41.9647C89.1451 41.9647 89.2233 42.1134 89.3945 42.1134C89.5661 42.1134 89.6394 41.9731 89.6394 41.9731L93.0149 36.1096V44.9344H97.4806V27.1504H93.0149Z" fill="#E74214"/>
<path d="M110.505 27.1543V27.1558L106.885 33.4445L103.264 27.1543L103.262 27.1552V27.1543H98.8086V44.9382H103.262V36.1087L106.635 41.9683C106.635 41.9683 106.714 42.1172 106.885 42.1172C107.056 42.1172 107.13 41.9769 107.13 41.9769L110.505 36.1134V44.9382H114.971V27.1543H110.505Z" fill="#E74214"/>
<path d="M126.555 31.6226V27.1504H116.4V44.9344H126.555V40.4616H120.857V38.2782H126.555V33.806H120.857V31.6226H126.555Z" fill="#E74214"/>
<path d="M132.337 31.6226H133.58C134.782 31.6226 135.756 32.5999 135.756 33.8052C135.756 35.0107 134.782 35.9879 133.58 35.9879H132.337V31.6226ZM136.962 39.4672C138.85 38.2937 140.108 36.1979 140.108 33.8066C140.108 30.1306 137.137 27.1504 133.471 27.1504H127.881V44.9344H132.337V40.3629L134.963 44.9344L140.108 44.9355L136.964 39.4674L136.962 39.4672Z" fill="#E74214"/>
<path d="M156.768 31.6226V27.1504H146.613V44.9344H151.07V38.2782H156.768V33.806H151.07V31.6226H156.768Z" fill="#E74214"/>
<path d="M158.201 27.1504H162.657V44.9344H158.201V27.1504Z" fill="#E74214"/>
<path d="M163.982 27.1504V31.6226H166.881V44.9344H171.337V31.6226H174.239V27.1504H163.982Z" fill="#E74214"/>
<path d="M58.3282 49.0618C58.2986 48.9473 58.2582 48.8423 58.2067 48.746C58.155 48.6503 58.0888 48.5672 58.0079 48.497C57.9268 48.4269 57.832 48.3725 57.7233 48.3336C57.6148 48.2949 57.4888 48.2757 57.3452 48.2757C57.1357 48.2757 56.9542 48.318 56.8014 48.4031C56.6487 48.4878 56.5245 48.6012 56.4288 48.7435C56.333 48.8856 56.2622 49.0473 56.2161 49.2279C56.1701 49.4089 56.1472 49.5935 56.1472 49.7815C56.1472 49.97 56.1701 50.1546 56.2161 50.3353C56.2622 50.5163 56.333 50.6779 56.4288 50.8199C56.5245 50.9618 56.6487 51.0753 56.8014 51.1604C56.9542 51.2452 57.1357 51.2878 57.3452 51.2878C57.4999 51.2878 57.6359 51.2607 57.7538 51.2073C57.8717 51.1539 57.9728 51.0802 58.0577 50.9858C58.1425 50.8919 58.2084 50.7821 58.2564 50.6565C58.3041 50.5311 58.3353 50.3962 58.3503 50.2522H59.0239C59.009 50.4886 58.9584 50.7045 58.872 50.9001C58.7856 51.0958 58.6687 51.2648 58.5214 51.4066C58.3741 51.549 58.2013 51.6586 58.0023 51.7362C57.8665 51.7892 57.7214 51.824 57.5667 51.8407H57.1156C56.9118 51.8193 56.7242 51.7688 56.5528 51.6891C56.3191 51.5804 56.1213 51.4315 55.9595 51.2437C55.7973 51.0552 55.6731 50.8357 55.5865 50.5847C55.5 50.3335 55.457 50.0658 55.457 49.7815C55.457 49.5013 55.5 49.2353 55.5865 48.9843C55.6731 48.7333 55.7973 48.5137 55.9595 48.3252C56.1213 48.1373 56.3191 47.9877 56.5528 47.8771C56.7867 47.7662 57.0509 47.7109 57.3452 47.7109C57.566 47.7109 57.7741 47.7411 57.9692 47.8022C58.1643 47.8631 58.3365 47.9518 58.4856 48.0678C58.6345 48.1843 58.7552 48.3252 58.8471 48.4917C58.9392 48.6576 58.9962 48.8477 59.0184 49.0618H58.3282Z" fill="#E74214"/>
<path d="M62.7461 47.8047H65.5841V48.4027H63.4362V49.4379H65.424V50.0028H63.4362V51.16H65.6229V51.758H62.7461V47.8047Z" fill="#E74214"/>
<path d="M68.9395 47.8047H72.1311V48.4027H70.8776V51.758H70.1875V48.4027H68.9395V47.8047Z" fill="#E74214"/>
<path d="M76.3718 51.1932H77.3933C77.4853 51.1932 77.5717 51.1841 77.6529 51.1654C77.7337 51.147 77.8056 51.1131 77.8681 51.0631C77.9307 51.0133 77.9804 50.9459 78.0173 50.8611C78.054 50.7761 78.0725 50.6691 78.0725 50.5399C78.0725 50.4144 78.0513 50.31 78.0089 50.227C77.9665 50.144 77.9116 50.0775 77.8432 50.0276C77.7752 49.9777 77.7007 49.9419 77.6198 49.9197C77.5386 49.8976 77.4595 49.8865 77.3823 49.8865H76.3718V51.1932ZM75.6816 47.8047H76.3718V49.3218H77.421C77.7007 49.3218 77.929 49.3614 78.1057 49.4406C78.2825 49.5203 78.4185 49.6208 78.5143 49.7426C78.6099 49.8642 78.6753 49.9963 78.7103 50.1383C78.7452 50.2808 78.7628 50.4125 78.7628 50.5342C78.7628 50.6561 78.7452 50.7891 78.7103 50.9331C78.6753 51.077 78.6099 51.2099 78.5143 51.3316C78.4185 51.4534 78.2825 51.5551 78.1057 51.6362C77.929 51.7175 77.7007 51.758 77.421 51.758H75.6816V47.8047Z" fill="#E74214"/>
<path d="M89.9448 49.7205C89.9448 49.5877 89.9291 49.4629 89.8978 49.3467C89.8666 49.2304 89.8168 49.1272 89.7487 49.0367C89.6804 48.9465 89.5904 48.8707 89.478 48.8096C89.3657 48.7489 89.2287 48.7074 89.0668 48.6852V50.7506C89.2287 50.7282 89.3657 50.6867 89.478 50.6259C89.5904 50.5648 89.6804 50.4893 89.7487 50.399C89.8168 50.3085 89.8666 50.2059 89.8978 50.0916C89.9291 49.9769 89.9448 49.8533 89.9448 49.7205ZM87.5043 49.7205C87.5043 49.8533 87.5188 49.9769 87.5484 50.0916C87.5778 50.2059 87.6273 50.3085 87.6976 50.399C87.7675 50.4893 87.8575 50.5648 87.9682 50.6259C88.0786 50.6867 88.2146 50.7282 88.3765 50.7506V48.6907C88.2146 48.7126 88.0786 48.7541 87.9682 48.8153C87.8575 48.876 87.7675 48.9517 87.6976 49.0421C87.6273 49.1328 87.5778 49.2351 87.5484 49.3496C87.5188 49.4639 87.5043 49.5877 87.5043 49.7205ZM88.3765 51.3041C88.1225 51.282 87.8999 51.2265 87.7085 51.1382C87.5171 51.0495 87.356 50.9359 87.2253 50.7974C87.0945 50.6591 86.9972 50.4985 86.9328 50.3156C86.8683 50.1332 86.8359 49.9346 86.8359 49.7205C86.8359 49.5064 86.8666 49.3071 86.9272 49.1225C86.9879 48.9381 87.082 48.7764 87.2087 48.638C87.3359 48.4997 87.4959 48.387 87.6893 48.3002C87.8824 48.2136 88.1116 48.159 88.3765 48.1371V47.6387H89.0668V48.1371C89.3319 48.159 89.561 48.2136 89.7543 48.3002C89.9477 48.387 90.1076 48.4997 90.2345 48.638C90.3617 48.7764 90.4565 48.9381 90.519 49.1225C90.5815 49.3071 90.6126 49.5064 90.6126 49.7205C90.6126 49.9346 90.5796 50.1332 90.5134 50.3156C90.4472 50.4985 90.3497 50.6591 90.2207 50.7974C90.0919 50.9359 89.9309 51.0495 89.7377 51.1382C89.5443 51.2265 89.3209 51.282 89.0668 51.3041V51.7582H88.3765V51.3041Z" fill="#E74214"/>
<path d="M94.2793 47.8047H94.9695V50.7505L96.6426 47.8047H97.4541V51.758H96.764V48.7903L95.069 51.758H94.2793V47.8047Z" fill="#E74214"/>
<path d="M100.998 47.8047H104.19V48.4027H102.936V51.758H102.246V48.4027H100.998V47.8047Z" fill="#E74214"/>
<path d="M107.725 47.8047H108.415V49.377H110.209V47.8047H110.899V51.758H110.209V49.975H108.415V51.758H107.725V47.8047Z" fill="#E74214"/>
<path d="M114.818 47.8047H117.656V48.4027H115.509V49.4379H117.496V50.0028H115.509V51.16H117.695V51.758H114.818V47.8047Z" fill="#E74214"/>
<path d="M124.051 49.0618C124.021 48.9473 123.981 48.8423 123.929 48.746C123.878 48.6503 123.812 48.5672 123.731 48.497C123.65 48.4269 123.555 48.3725 123.446 48.3336C123.337 48.2949 123.212 48.2757 123.068 48.2757C122.858 48.2757 122.677 48.318 122.524 48.4031C122.371 48.4878 122.247 48.6012 122.152 48.7435C122.056 48.8856 121.985 49.0473 121.939 49.2279C121.893 49.4089 121.87 49.5935 121.87 49.7815C121.87 49.97 121.893 50.1546 121.939 50.3353C121.985 50.5163 122.056 50.6779 122.152 50.8199C122.247 50.9618 122.371 51.0753 122.524 51.1604C122.677 51.2452 122.858 51.2878 123.068 51.2878C123.223 51.2878 123.359 51.2607 123.477 51.2073C123.595 51.1539 123.696 51.0802 123.78 50.9858C123.865 50.8919 123.931 50.7821 123.979 50.6565C124.027 50.5311 124.058 50.3962 124.073 50.2522H124.747C124.732 50.4886 124.681 50.7045 124.595 50.9001C124.508 51.0958 124.392 51.2648 124.244 51.4066C124.097 51.549 123.924 51.6586 123.725 51.7362C123.589 51.7892 123.444 51.824 123.289 51.8407H122.838C122.635 51.8193 122.447 51.7688 122.276 51.6891C122.042 51.5804 121.844 51.4315 121.682 51.2437C121.52 51.0552 121.396 50.8357 121.309 50.5847C121.223 50.3335 121.18 50.0658 121.18 49.7815C121.18 49.5013 121.223 49.2353 121.309 48.9843C121.396 48.7333 121.52 48.5137 121.682 48.3252C121.844 48.1373 122.042 47.9877 122.276 47.8771C122.51 47.7662 122.774 47.7109 123.068 47.7109C123.289 47.7109 123.497 47.7411 123.692 47.8022C123.887 47.8631 124.059 47.9518 124.208 48.0678C124.357 48.1843 124.478 48.3252 124.57 48.4917C124.662 48.6576 124.719 48.8477 124.741 49.0618H124.051Z" fill="#E74214"/>
<path d="M128.318 49.9531H129.925V50.5512H128.318V49.9531Z" fill="#E74214"/>
<path d="M133.707 47.8047H134.397V49.6042L136.153 47.8047H137.004L135.43 49.3827L137.114 51.758H136.253L134.961 49.8698L134.397 50.429V51.758H133.707V47.8047Z" fill="#E74214"/>
<path d="M140.39 51.1822C140.486 51.1822 140.568 51.1619 140.636 51.1213C140.704 51.0808 140.762 51.0226 140.81 50.9469C140.858 50.8714 140.895 50.7827 140.923 50.681C140.951 50.5796 140.974 50.4677 140.992 50.3462C141.007 50.2245 141.021 50.1126 141.034 50.0112C141.047 49.9095 141.056 49.8081 141.064 49.7066C141.072 49.6051 141.078 49.4979 141.083 49.3854C141.089 49.2728 141.092 49.1426 141.094 48.9953C141.096 48.8473 141.098 48.6777 141.1 48.4857C141.102 48.2936 141.103 48.0667 141.103 47.8047H143.819V51.758H143.129V48.4027H141.749C141.741 48.6463 141.737 48.8623 141.735 49.0504C141.733 49.2384 141.729 49.413 141.724 49.5736C141.718 49.7342 141.708 49.8892 141.693 50.0388C141.679 50.1881 141.657 50.3498 141.627 50.5233C141.609 50.6377 141.579 50.7678 141.539 50.9137C141.499 51.0594 141.435 51.1959 141.348 51.3235C141.262 51.4507 141.149 51.5588 141.009 51.6474C140.869 51.7359 140.69 51.7801 140.473 51.7801C140.403 51.7801 140.345 51.7782 140.299 51.7747C140.253 51.7708 140.208 51.7654 140.164 51.758V51.16C140.208 51.1674 140.247 51.173 140.28 51.1765C140.313 51.1804 140.35 51.1822 140.39 51.1822Z" fill="#E74214"/>
<path d="M147.926 51.1822C148.066 51.1822 148.197 51.1389 148.318 51.0519C148.439 50.9653 148.53 50.8479 148.589 50.7005L147.291 47.8047H148.114L149.014 50.0139H149.025L149.941 47.8047H150.714L149.411 50.7058C149.242 51.0862 149.04 51.3603 148.807 51.5283C148.573 51.6963 148.307 51.7801 148.009 51.7801C147.939 51.7801 147.881 51.7782 147.835 51.7747C147.789 51.7708 147.744 51.7654 147.699 51.758V51.16C147.744 51.1674 147.782 51.173 147.815 51.1765C147.849 51.1804 147.885 51.1822 147.926 51.1822Z" fill="#E74214"/>
<path d="M154.889 51.1932H155.911C156.003 51.1932 156.089 51.1841 156.17 51.1654C156.251 51.147 156.323 51.1131 156.385 51.0631C156.448 51.0133 156.498 50.9459 156.535 50.8611C156.571 50.7761 156.59 50.6691 156.59 50.5399C156.59 50.4144 156.569 50.31 156.526 50.227C156.484 50.144 156.429 50.0775 156.361 50.0276C156.292 49.9777 156.218 49.9419 156.137 49.9197C156.056 49.8976 155.977 49.8865 155.9 49.8865H154.889V51.1932ZM154.199 47.8047H156.921V48.4027H154.889V49.3218H155.939C156.218 49.3218 156.446 49.3614 156.623 49.4406C156.8 49.5203 156.936 49.6208 157.032 49.7426C157.127 49.8642 157.193 49.9963 157.228 50.1383C157.263 50.2808 157.28 50.4125 157.28 50.5342C157.28 50.6561 157.263 50.7891 157.228 50.9331C157.193 51.077 157.127 51.2099 157.032 51.3316C156.936 51.4534 156.8 51.5551 156.623 51.6362C156.446 51.7175 156.218 51.758 155.939 51.758H154.199V47.8047Z" fill="#E74214"/>
<path d="M162.652 48.2757C162.442 48.2757 162.261 48.318 162.108 48.4031C161.956 48.4878 161.831 48.6012 161.735 48.7435C161.64 48.8856 161.569 49.0473 161.523 49.2279C161.477 49.4089 161.454 49.5935 161.454 49.7815C161.454 49.97 161.477 50.1546 161.523 50.3353C161.569 50.5163 161.64 50.6779 161.735 50.8199C161.831 50.9618 161.956 51.0753 162.108 51.1604C162.261 51.2452 162.442 51.2878 162.652 51.2878C162.862 51.2878 163.043 51.2452 163.196 51.1604C163.349 51.0753 163.473 50.9618 163.569 50.8199C163.664 50.6779 163.735 50.5163 163.781 50.3353C163.827 50.1546 163.85 49.97 163.85 49.7815C163.85 49.5935 163.827 49.4089 163.781 49.2279C163.735 49.0473 163.664 48.8856 163.569 48.7435C163.473 48.6012 163.349 48.4878 163.196 48.4031C163.043 48.318 162.862 48.2757 162.652 48.2757ZM162.882 51.8407H162.422C162.218 51.8193 162.031 51.7688 161.859 51.6891C161.626 51.5804 161.428 51.4315 161.266 51.2437C161.104 51.0552 160.98 50.8357 160.893 50.5847C160.807 50.3335 160.764 50.0658 160.764 49.7815C160.764 49.5013 160.807 49.2353 160.893 48.9843C160.98 48.7333 161.104 48.5137 161.266 48.3252C161.428 48.1373 161.626 47.9877 161.859 47.8771C162.093 47.7662 162.357 47.7109 162.652 47.7109C162.946 47.7109 163.211 47.7662 163.444 47.8771C163.678 47.9877 163.876 48.1373 164.038 48.3252C164.2 48.5137 164.324 48.7333 164.41 48.9843C164.497 49.2353 164.54 49.5013 164.54 49.7815C164.54 50.0658 164.497 50.3335 164.41 50.5847C164.324 50.8357 164.2 51.0552 164.038 51.2437C163.876 51.4315 163.678 51.5804 163.444 51.6891C163.273 51.7688 163.085 51.8193 162.882 51.8407Z" fill="#E74214"/>
<path d="M168.952 51.1932H170.172C170.382 51.1932 170.544 51.1389 170.661 51.0299C170.777 50.9209 170.834 50.7668 170.834 50.5677C170.834 50.372 170.777 50.2216 170.661 50.1164C170.544 50.0112 170.382 49.9585 170.172 49.9585H168.952V51.1932ZM168.952 49.4601H170.078C170.244 49.4601 170.382 49.413 170.492 49.3191C170.603 49.2248 170.658 49.0892 170.658 48.9121C170.658 48.7124 170.608 48.5725 170.509 48.4913C170.409 48.41 170.266 48.3695 170.078 48.3695H168.952V49.4601ZM168.262 47.8047H170.177C170.531 47.8047 170.814 47.886 171.028 48.0483C171.241 48.2107 171.348 48.456 171.348 48.7847C171.348 48.984 171.299 49.1548 171.201 49.2967C171.104 49.439 170.965 49.5488 170.785 49.6263V49.6374C171.028 49.6891 171.212 49.8044 171.337 49.9834C171.462 50.1624 171.525 50.3865 171.525 50.6561C171.525 50.8112 171.497 50.956 171.442 51.0907C171.387 51.2256 171.3 51.3417 171.182 51.4395C171.064 51.5375 170.914 51.6149 170.73 51.6724C170.546 51.7293 170.326 51.758 170.073 51.758H168.262V47.8047Z" fill="#E74214"/>
</g>
<defs>
<clipPath id="clip0_1_493">
<rect width="156.24" height="31.44" fill="white" transform="translate(18 20.4004)"/>
</clipPath>
</defs>
</svg>
